<svg width="527" height="156" viewBox="0 0 527 156" fill="none" xmlns="http://www.w3.org/2000/svg">
<rect x="3" y="3" width="521" height="150" fill="#F2C94C" stroke="black" stroke-width="6"/>
<path d="M190.573 86.7246C190.101 91.7305 188.253 95.6406 185.03 98.4551C181.808 101.248 177.521 102.645 172.172 102.645C168.434 102.645 165.136 101.764 162.278 100.002C159.442 98.2188 157.251 95.6943 155.704 92.4287C154.157 89.1631 153.352 85.3711 153.287 81.0527V76.6699C153.287 72.2441 154.071 68.3447 155.64 64.9717C157.208 61.5986 159.453 58.999 162.375 57.1729C165.318 55.3467 168.713 54.4336 172.559 54.4336C177.736 54.4336 181.904 55.8408 185.062 58.6553C188.221 61.4697 190.058 65.4443 190.573 70.5791H182.452C182.065 67.2061 181.077 64.7783 179.487 63.2959C177.919 61.792 175.609 61.04 172.559 61.04C169.014 61.04 166.285 62.3398 164.373 64.9395C162.482 67.5176 161.516 71.3096 161.473 76.3154V80.4727C161.473 85.543 162.375 89.4102 164.18 92.0742C166.006 94.7383 168.67 96.0703 172.172 96.0703C175.373 96.0703 177.779 95.3506 179.391 93.9111C181.002 92.4717 182.022 90.0762 182.452 86.7246H190.573ZM209.329 90.7852L216.419 67.1309H224.766L210.908 107.285C208.781 113.15 205.172 116.083 200.08 116.083C198.941 116.083 197.685 115.89 196.31 115.503V109.444L197.792 109.541C199.769 109.541 201.251 109.176 202.239 108.445C203.249 107.736 204.044 106.533 204.624 104.836L205.752 101.839L193.506 67.1309H201.949L209.329 90.7852ZM236.657 67.1309L236.883 70.7725C239.332 67.915 242.684 66.4863 246.938 66.4863C251.6 66.4863 254.79 68.2695 256.509 71.8359C259.044 68.2695 262.61 66.4863 267.208 66.4863C271.054 66.4863 273.911 67.5498 275.78 69.6768C277.671 71.8037 278.638 74.9404 278.681 79.0869V102H270.85V79.3125C270.85 77.0996 270.366 75.4775 269.399 74.4463C268.433 73.415 266.832 72.8994 264.598 72.8994C262.814 72.8994 261.354 73.3828 260.215 74.3496C259.098 75.2949 258.313 76.541 257.862 78.0879L257.895 102H250.063V79.0547C249.956 74.9512 247.861 72.8994 243.779 72.8994C240.643 72.8994 238.419 74.1777 237.108 76.7344V102H229.277V67.1309H236.657ZM317.256 84.9199C317.256 90.3125 316.031 94.6201 313.582 97.8428C311.133 101.044 307.846 102.645 303.721 102.645C299.896 102.645 296.835 101.388 294.536 98.874V115.406H286.705V67.1309H293.924L294.246 70.6758C296.545 67.8828 299.671 66.4863 303.624 66.4863C307.878 66.4863 311.208 68.0762 313.614 71.2559C316.042 74.4141 317.256 78.8076 317.256 84.4365V84.9199ZM309.457 84.2432C309.457 80.7627 308.759 78.002 307.362 75.9609C305.987 73.9199 304.011 72.8994 301.433 72.8994C298.231 72.8994 295.933 74.2207 294.536 76.8633V92.332C295.954 95.0391 298.274 96.3926 301.497 96.3926C303.989 96.3926 305.934 95.3936 307.33 93.3955C308.748 91.376 309.457 88.3252 309.457 84.2432ZM332.241 102H324.41V52.5H332.241V102ZM356.153 102.645C351.19 102.645 347.162 101.087 344.068 97.9717C340.996 94.835 339.46 90.667 339.46 85.4678V84.501C339.46 81.0205 340.126 77.916 341.458 75.1875C342.812 72.4375 344.702 70.2998 347.13 68.7744C349.558 67.249 352.265 66.4863 355.251 66.4863C359.999 66.4863 363.662 68.001 366.24 71.0303C368.84 74.0596 370.14 78.3457 370.14 83.8887V87.0469H347.355C347.592 89.9258 348.548 92.2031 350.224 93.8789C351.921 95.5547 354.048 96.3926 356.604 96.3926C360.192 96.3926 363.114 94.9424 365.37 92.042L369.592 96.0703C368.195 98.1543 366.326 99.7764 363.984 100.937C361.664 102.075 359.054 102.645 356.153 102.645ZM355.219 72.7705C353.07 72.7705 351.33 73.5225 349.998 75.0264C348.688 76.5303 347.85 78.625 347.484 81.3105H362.405V80.7305C362.233 78.1094 361.535 76.1328 360.311 74.8008C359.086 73.4473 357.389 72.7705 355.219 72.7705ZM393.439 102V55.0781H409.521C414.827 55.0781 418.866 56.1416 421.638 58.2686C424.409 60.3955 425.795 63.5645 425.795 67.7754C425.795 69.9238 425.215 71.8574 424.055 73.5762C422.895 75.2949 421.197 76.627 418.963 77.5723C421.498 78.2598 423.453 79.5596 424.828 81.4717C426.225 83.3623 426.923 85.6396 426.923 88.3037C426.923 92.708 425.505 96.0918 422.669 98.4551C419.854 100.818 415.815 102 410.552 102H393.439ZM401.593 80.8271V95.4902H410.648C413.205 95.4902 415.203 94.8564 416.643 93.5889C418.082 92.3213 418.802 90.5596 418.802 88.3037C418.802 83.4268 416.31 80.9346 411.325 80.8271H401.593ZM401.593 74.833H409.585C412.12 74.833 414.097 74.2637 415.515 73.125C416.954 71.9648 417.674 70.332 417.674 68.2266C417.674 65.9062 417.008 64.2305 415.676 63.1992C414.365 62.168 412.313 61.6523 409.521 61.6523H401.593V74.833ZM432.853 84.2432C432.853 80.8271 433.529 77.7549 434.883 75.0264C436.236 72.2764 438.138 70.1709 440.587 68.71C443.036 67.2275 445.851 66.4863 449.03 66.4863C453.735 66.4863 457.549 68.001 460.471 71.0303C463.414 74.0596 465.004 78.0771 465.24 83.083L465.272 84.9199C465.272 88.3574 464.606 91.4297 463.274 94.1367C461.964 96.8438 460.073 98.9385 457.603 100.421C455.153 101.903 452.317 102.645 449.095 102.645C444.175 102.645 440.232 101.012 437.268 97.7461C434.324 94.459 432.853 90.0869 432.853 84.6299V84.2432ZM440.684 84.9199C440.684 88.5078 441.425 91.3223 442.907 93.3633C444.39 95.3828 446.452 96.3926 449.095 96.3926C451.737 96.3926 453.789 95.3613 455.25 93.2988C456.732 91.2363 457.474 88.2178 457.474 84.2432C457.474 80.7197 456.711 77.9268 455.186 75.8643C453.682 73.8018 451.63 72.7705 449.03 72.7705C446.474 72.7705 444.443 73.791 442.939 75.832C441.436 77.8516 440.684 80.8809 440.684 84.9199ZM481.708 58.6553V67.1309H487.863V72.9316H481.708V92.3965C481.708 93.7285 481.966 94.6953 482.481 95.2969C483.019 95.877 483.964 96.167 485.317 96.167C486.22 96.167 487.133 96.0596 488.057 95.8447V101.903C486.273 102.397 484.555 102.645 482.9 102.645C476.885 102.645 473.877 99.3252 473.877 92.6865V72.9316H468.141V67.1309H473.877V58.6553H481.708Z" fill="black"/>
<rect x="44" y="60.8193" width="49.5653" height="49.5653" fill="#EB5757" stroke="black" stroke-width="4"/>
<circle cx="88.5509" cy="63.2826" r="24.7826" fill="#2F80ED" stroke="black" stroke-width="4"/>
<path d="M71.609 117.398L99.0723 69.8328L126.536 117.398H71.609Z" fill="#27AE60" stroke="black" stroke-width="4"/>
</svg>
