<svg width="426" height="95" viewBox="0 0 426 95" fill="none" xmlns="http://www.w3.org/2000/svg">
<path d="M127.732 64.48C124.692 64.48 122.084 63.984 119.908 62.992C117.764 62 116.084 60.544 114.868 58.624C113.684 56.704 113.028 54.32 112.9 51.472C112.868 50.16 112.852 48.752 112.852 47.248C112.852 45.744 112.868 44.304 112.9 42.928C113.028 40.144 113.7 37.792 114.916 35.872C116.132 33.92 117.828 32.448 120.004 31.456C122.18 30.432 124.756 29.92 127.732 29.92C129.844 29.92 131.796 30.192 133.588 30.736C135.38 31.248 136.948 32.016 138.292 33.04C139.636 34.032 140.676 35.248 141.412 36.688C142.18 38.096 142.58 39.696 142.612 41.488C142.644 41.776 142.548 42.016 142.324 42.208C142.132 42.4 141.892 42.496 141.604 42.496H135.124C134.708 42.496 134.388 42.416 134.164 42.256C133.94 42.064 133.748 41.728 133.588 41.248C133.14 39.552 132.404 38.4 131.38 37.792C130.388 37.152 129.156 36.832 127.684 36.832C125.924 36.832 124.532 37.328 123.508 38.32C122.484 39.28 121.924 40.896 121.828 43.168C121.732 45.792 121.732 48.48 121.828 51.232C121.924 53.504 122.484 55.136 123.508 56.128C124.532 57.088 125.924 57.568 127.684 57.568C129.156 57.568 130.404 57.248 131.428 56.608C132.452 55.968 133.172 54.816 133.588 53.152C133.716 52.672 133.892 52.352 134.116 52.192C134.372 52 134.708 51.904 135.124 51.904H141.604C141.892 51.904 142.132 52 142.324 52.192C142.548 52.384 142.644 52.624 142.612 52.912C142.58 54.704 142.18 56.32 141.412 57.76C140.676 59.168 139.636 60.384 138.292 61.408C136.948 62.4 135.38 63.168 133.588 63.712C131.796 64.224 129.844 64.48 127.732 64.48ZM156.561 64C156.241 64 155.953 63.888 155.697 63.664C155.473 63.44 155.361 63.152 155.361 62.8V52.48L144.225 31.936C144.193 31.84 144.161 31.76 144.129 31.696C144.097 31.6 144.081 31.504 144.081 31.408C144.081 31.152 144.177 30.928 144.369 30.736C144.593 30.512 144.849 30.4 145.137 30.4H151.137C151.617 30.4 151.985 30.528 152.241 30.784C152.529 31.008 152.705 31.216 152.769 31.408L159.681 43.792L166.593 31.408C166.689 31.216 166.865 31.008 167.121 30.784C167.409 30.528 167.793 30.4 168.273 30.4H174.273C174.561 30.4 174.801 30.512 174.993 30.736C175.185 30.928 175.281 31.152 175.281 31.408C175.281 31.504 175.265 31.6 175.233 31.696C175.233 31.76 175.217 31.84 175.185 31.936L164.001 52.48V62.8C164.001 63.152 163.889 63.44 163.665 63.664C163.441 63.888 163.153 64 162.801 64H156.561ZM180.593 64C180.273 64 179.985 63.888 179.729 63.664C179.505 63.44 179.393 63.152 179.393 62.8V31.6C179.393 31.248 179.505 30.96 179.729 30.736C179.985 30.512 180.273 30.4 180.593 30.4H185.777C186.289 30.4 186.673 30.544 186.929 30.832C187.217 31.088 187.393 31.296 187.457 31.456L195.905 46.624L204.353 31.456C204.449 31.296 204.609 31.088 204.833 30.832C205.089 30.544 205.489 30.4 206.033 30.4H211.169C211.521 30.4 211.809 30.512 212.033 30.736C212.289 30.96 212.417 31.248 212.417 31.6V62.8C212.417 63.152 212.289 63.44 212.033 63.664C211.809 63.888 211.521 64 211.169 64H205.457C205.105 64 204.801 63.888 204.545 63.664C204.321 63.44 204.209 63.152 204.209 62.8V44.8L198.785 54.832C198.657 55.12 198.465 55.376 198.209 55.6C197.953 55.824 197.601 55.936 197.153 55.936H194.657C194.209 55.936 193.857 55.824 193.601 55.6C193.345 55.376 193.137 55.12 192.977 54.832L187.553 44.8V62.8C187.553 63.152 187.441 63.44 187.217 63.664C186.993 63.888 186.705 64 186.353 64H180.593ZM220.296 64C219.944 64 219.656 63.888 219.432 63.664C219.208 63.44 219.096 63.152 219.096 62.8V31.6C219.096 31.248 219.208 30.96 219.432 30.736C219.656 30.512 219.944 30.4 220.296 30.4H233.736C236.392 30.4 238.696 30.816 240.648 31.648C242.632 32.448 244.168 33.664 245.256 35.296C246.376 36.928 246.936 38.992 246.936 41.488C246.936 43.952 246.376 45.984 245.256 47.584C244.168 49.184 242.632 50.368 240.648 51.136C238.696 51.904 236.392 52.288 233.736 52.288H228.024V62.8C228.024 63.152 227.896 63.44 227.64 63.664C227.416 63.888 227.128 64 226.776 64H220.296ZM227.88 45.664H233.496C234.872 45.664 235.96 45.312 236.76 44.608C237.592 43.904 238.008 42.832 238.008 41.392C238.008 40.176 237.656 39.152 236.952 38.32C236.248 37.488 235.096 37.072 233.496 37.072H227.88V45.664ZM252.734 64C252.382 64 252.094 63.888 251.87 63.664C251.646 63.44 251.534 63.152 251.534 62.8V31.6C251.534 31.248 251.646 30.96 251.87 30.736C252.094 30.512 252.382 30.4 252.734 30.4H259.07C259.39 30.4 259.662 30.512 259.886 30.736C260.142 30.96 260.27 31.248 260.27 31.6V56.752H274.766C275.118 56.752 275.406 56.88 275.63 57.136C275.886 57.36 276.014 57.648 276.014 58V62.8C276.014 63.152 275.886 63.44 275.63 63.664C275.406 63.888 275.118 64 274.766 64H252.734ZM281.374 64C281.022 64 280.734 63.888 280.51 63.664C280.286 63.44 280.174 63.152 280.174 62.8V31.6C280.174 31.248 280.286 30.96 280.51 30.736C280.734 30.512 281.022 30.4 281.374 30.4H303.79C304.142 30.4 304.43 30.512 304.654 30.736C304.878 30.96 304.99 31.248 304.99 31.6V36.112C304.99 36.464 304.878 36.752 304.654 36.976C304.43 37.2 304.142 37.312 303.79 37.312H288.478V43.792H302.734C303.086 43.792 303.374 43.92 303.598 44.176C303.822 44.4 303.934 44.688 303.934 45.04V49.216C303.934 49.536 303.822 49.824 303.598 50.08C303.374 50.304 303.086 50.416 302.734 50.416H288.478V57.088H304.174C304.526 57.088 304.814 57.2 305.038 57.424C305.262 57.648 305.374 57.936 305.374 58.288V62.8C305.374 63.152 305.262 63.44 305.038 63.664C304.814 63.888 304.526 64 304.174 64H281.374ZM332.468 64C332.116 64 331.828 63.888 331.604 63.664C331.38 63.44 331.268 63.152 331.268 62.8V31.6C331.268 31.248 331.38 30.96 331.604 30.736C331.828 30.512 332.116 30.4 332.468 30.4H347.108C349.86 30.4 352.116 30.784 353.876 31.552C355.636 32.32 356.932 33.424 357.764 34.864C358.628 36.272 359.06 37.952 359.06 39.904C359.06 41.056 358.836 42.08 358.388 42.976C357.972 43.84 357.444 44.56 356.804 45.136C356.196 45.712 355.62 46.128 355.076 46.384C356.292 46.96 357.364 47.904 358.292 49.216C359.252 50.528 359.732 52.064 359.732 53.824C359.732 55.936 359.252 57.76 358.292 59.296C357.364 60.8 355.988 61.968 354.164 62.8C352.372 63.6 350.164 64 347.54 64H332.468ZM339.86 57.76H346.58C347.956 57.76 348.996 57.36 349.7 56.56C350.404 55.76 350.756 54.848 350.756 53.824C350.756 52.704 350.388 51.76 349.652 50.992C348.948 50.224 347.924 49.84 346.58 49.84H339.86V57.76ZM339.86 43.744H346.148C347.46 43.744 348.436 43.408 349.076 42.736C349.748 42.064 350.084 41.2 350.084 40.144C350.084 39.12 349.748 38.288 349.076 37.648C348.436 36.976 347.46 36.64 346.148 36.64H339.86V43.744ZM378.793 64.48C375.849 64.48 373.289 64 371.113 63.04C368.937 62.08 367.241 60.64 366.025 58.72C364.809 56.768 364.137 54.336 364.009 51.424C363.977 50.048 363.961 48.672 363.961 47.296C363.961 45.92 363.977 44.528 364.009 43.12C364.137 40.24 364.809 37.824 366.025 35.872C367.273 33.888 368.985 32.4 371.161 31.408C373.337 30.416 375.881 29.92 378.793 29.92C381.673 29.92 384.201 30.416 386.377 31.408C388.585 32.4 390.313 33.888 391.561 35.872C392.809 37.824 393.481 40.24 393.577 43.12C393.641 44.528 393.673 45.92 393.673 47.296C393.673 48.672 393.641 50.048 393.577 51.424C393.449 54.336 392.777 56.768 391.561 58.72C390.345 60.64 388.649 62.08 386.473 63.04C384.297 64 381.737 64.48 378.793 64.48ZM378.793 57.568C380.489 57.568 381.865 57.056 382.921 56.032C384.009 55.008 384.585 53.376 384.649 51.136C384.713 49.728 384.745 48.4 384.745 47.152C384.745 45.904 384.713 44.608 384.649 43.264C384.585 41.76 384.297 40.544 383.785 39.616C383.305 38.656 382.633 37.952 381.769 37.504C380.905 37.056 379.913 36.832 378.793 36.832C377.705 36.832 376.729 37.056 375.865 37.504C375.001 37.952 374.313 38.656 373.801 39.616C373.289 40.544 373.001 41.76 372.937 43.264C372.905 44.608 372.889 45.904 372.889 47.152C372.889 48.4 372.905 49.728 372.937 51.136C373.033 53.376 373.609 55.008 374.665 56.032C375.721 57.056 377.097 57.568 378.793 57.568ZM407.313 64C406.961 64 406.673 63.888 406.449 63.664C406.225 63.44 406.113 63.152 406.113 62.8V37.936H397.569C397.217 37.936 396.929 37.824 396.705 37.6C396.481 37.344 396.369 37.056 396.369 36.736V31.6C396.369 31.248 396.481 30.96 396.705 30.736C396.929 30.512 397.217 30.4 397.569 30.4H423.393C423.745 30.4 424.033 30.512 424.257 30.736C424.481 30.96 424.593 31.248 424.593 31.6V36.736C424.593 37.056 424.481 37.344 424.257 37.6C424.033 37.824 423.745 37.936 423.393 37.936H414.849V62.8C414.849 63.152 414.737 63.44 414.513 63.664C414.289 63.888 414.001 64 413.649 64H407.313Z" fill="#EFEFE7"/>
<path d="M127.732 64.48C124.692 64.48 122.084 63.984 119.908 62.992C117.764 62 116.084 60.544 114.868 58.624C113.684 56.704 113.028 54.32 112.9 51.472C112.868 50.16 112.852 48.752 112.852 47.248C112.852 45.744 112.868 44.304 112.9 42.928C113.028 40.144 113.7 37.792 114.916 35.872C116.132 33.92 117.828 32.448 120.004 31.456C122.18 30.432 124.756 29.92 127.732 29.92C129.844 29.92 131.796 30.192 133.588 30.736C135.38 31.248 136.948 32.016 138.292 33.04C139.636 34.032 140.676 35.248 141.412 36.688C142.18 38.096 142.58 39.696 142.612 41.488C142.644 41.776 142.548 42.016 142.324 42.208C142.132 42.4 141.892 42.496 141.604 42.496H135.124C134.708 42.496 134.388 42.416 134.164 42.256C133.94 42.064 133.748 41.728 133.588 41.248C133.14 39.552 132.404 38.4 131.38 37.792C130.388 37.152 129.156 36.832 127.684 36.832C125.924 36.832 124.532 37.328 123.508 38.32C122.484 39.28 121.924 40.896 121.828 43.168C121.732 45.792 121.732 48.48 121.828 51.232C121.924 53.504 122.484 55.136 123.508 56.128C124.532 57.088 125.924 57.568 127.684 57.568C129.156 57.568 130.404 57.248 131.428 56.608C132.452 55.968 133.172 54.816 133.588 53.152C133.716 52.672 133.892 52.352 134.116 52.192C134.372 52 134.708 51.904 135.124 51.904H141.604C141.892 51.904 142.132 52 142.324 52.192C142.548 52.384 142.644 52.624 142.612 52.912C142.58 54.704 142.18 56.32 141.412 57.76C140.676 59.168 139.636 60.384 138.292 61.408C136.948 62.4 135.38 63.168 133.588 63.712C131.796 64.224 129.844 64.48 127.732 64.48ZM156.561 64C156.241 64 155.953 63.888 155.697 63.664C155.473 63.44 155.361 63.152 155.361 62.8V52.48L144.225 31.936C144.193 31.84 144.161 31.76 144.129 31.696C144.097 31.6 144.081 31.504 144.081 31.408C144.081 31.152 144.177 30.928 144.369 30.736C144.593 30.512 144.849 30.4 145.137 30.4H151.137C151.617 30.4 151.985 30.528 152.241 30.784C152.529 31.008 152.705 31.216 152.769 31.408L159.681 43.792L166.593 31.408C166.689 31.216 166.865 31.008 167.121 30.784C167.409 30.528 167.793 30.4 168.273 30.4H174.273C174.561 30.4 174.801 30.512 174.993 30.736C175.185 30.928 175.281 31.152 175.281 31.408C175.281 31.504 175.265 31.6 175.233 31.696C175.233 31.76 175.217 31.84 175.185 31.936L164.001 52.48V62.8C164.001 63.152 163.889 63.44 163.665 63.664C163.441 63.888 163.153 64 162.801 64H156.561ZM180.593 64C180.273 64 179.985 63.888 179.729 63.664C179.505 63.44 179.393 63.152 179.393 62.8V31.6C179.393 31.248 179.505 30.96 179.729 30.736C179.985 30.512 180.273 30.4 180.593 30.4H185.777C186.289 30.4 186.673 30.544 186.929 30.832C187.217 31.088 187.393 31.296 187.457 31.456L195.905 46.624L204.353 31.456C204.449 31.296 204.609 31.088 204.833 30.832C205.089 30.544 205.489 30.4 206.033 30.4H211.169C211.521 30.4 211.809 30.512 212.033 30.736C212.289 30.96 212.417 31.248 212.417 31.6V62.8C212.417 63.152 212.289 63.44 212.033 63.664C211.809 63.888 211.521 64 211.169 64H205.457C205.105 64 204.801 63.888 204.545 63.664C204.321 63.44 204.209 63.152 204.209 62.8V44.8L198.785 54.832C198.657 55.12 198.465 55.376 198.209 55.6C197.953 55.824 197.601 55.936 197.153 55.936H194.657C194.209 55.936 193.857 55.824 193.601 55.6C193.345 55.376 193.137 55.12 192.977 54.832L187.553 44.8V62.8C187.553 63.152 187.441 63.44 187.217 63.664C186.993 63.888 186.705 64 186.353 64H180.593ZM220.296 64C219.944 64 219.656 63.888 219.432 63.664C219.208 63.44 219.096 63.152 219.096 62.8V31.6C219.096 31.248 219.208 30.96 219.432 30.736C219.656 30.512 219.944 30.4 220.296 30.4H233.736C236.392 30.4 238.696 30.816 240.648 31.648C242.632 32.448 244.168 33.664 245.256 35.296C246.376 36.928 246.936 38.992 246.936 41.488C246.936 43.952 246.376 45.984 245.256 47.584C244.168 49.184 242.632 50.368 240.648 51.136C238.696 51.904 236.392 52.288 233.736 52.288H228.024V62.8C228.024 63.152 227.896 63.44 227.64 63.664C227.416 63.888 227.128 64 226.776 64H220.296ZM227.88 45.664H233.496C234.872 45.664 235.96 45.312 236.76 44.608C237.592 43.904 238.008 42.832 238.008 41.392C238.008 40.176 237.656 39.152 236.952 38.32C236.248 37.488 235.096 37.072 233.496 37.072H227.88V45.664ZM252.734 64C252.382 64 252.094 63.888 251.87 63.664C251.646 63.44 251.534 63.152 251.534 62.8V31.6C251.534 31.248 251.646 30.96 251.87 30.736C252.094 30.512 252.382 30.4 252.734 30.4H259.07C259.39 30.4 259.662 30.512 259.886 30.736C260.142 30.96 260.27 31.248 260.27 31.6V56.752H274.766C275.118 56.752 275.406 56.88 275.63 57.136C275.886 57.36 276.014 57.648 276.014 58V62.8C276.014 63.152 275.886 63.44 275.63 63.664C275.406 63.888 275.118 64 274.766 64H252.734ZM281.374 64C281.022 64 280.734 63.888 280.51 63.664C280.286 63.44 280.174 63.152 280.174 62.8V31.6C280.174 31.248 280.286 30.96 280.51 30.736C280.734 30.512 281.022 30.4 281.374 30.4H303.79C304.142 30.4 304.43 30.512 304.654 30.736C304.878 30.96 304.99 31.248 304.99 31.6V36.112C304.99 36.464 304.878 36.752 304.654 36.976C304.43 37.2 304.142 37.312 303.79 37.312H288.478V43.792H302.734C303.086 43.792 303.374 43.92 303.598 44.176C303.822 44.4 303.934 44.688 303.934 45.04V49.216C303.934 49.536 303.822 49.824 303.598 50.08C303.374 50.304 303.086 50.416 302.734 50.416H288.478V57.088H304.174C304.526 57.088 304.814 57.2 305.038 57.424C305.262 57.648 305.374 57.936 305.374 58.288V62.8C305.374 63.152 305.262 63.44 305.038 63.664C304.814 63.888 304.526 64 304.174 64H281.374ZM332.468 64C332.116 64 331.828 63.888 331.604 63.664C331.38 63.44 331.268 63.152 331.268 62.8V31.6C331.268 31.248 331.38 30.96 331.604 30.736C331.828 30.512 332.116 30.4 332.468 30.4H347.108C349.86 30.4 352.116 30.784 353.876 31.552C355.636 32.32 356.932 33.424 357.764 34.864C358.628 36.272 359.06 37.952 359.06 39.904C359.06 41.056 358.836 42.08 358.388 42.976C357.972 43.84 357.444 44.56 356.804 45.136C356.196 45.712 355.62 46.128 355.076 46.384C356.292 46.96 357.364 47.904 358.292 49.216C359.252 50.528 359.732 52.064 359.732 53.824C359.732 55.936 359.252 57.76 358.292 59.296C357.364 60.8 355.988 61.968 354.164 62.8C352.372 63.6 350.164 64 347.54 64H332.468ZM339.86 57.76H346.58C347.956 57.76 348.996 57.36 349.7 56.56C350.404 55.76 350.756 54.848 350.756 53.824C350.756 52.704 350.388 51.76 349.652 50.992C348.948 50.224 347.924 49.84 346.58 49.84H339.86V57.76ZM339.86 43.744H346.148C347.46 43.744 348.436 43.408 349.076 42.736C349.748 42.064 350.084 41.2 350.084 40.144C350.084 39.12 349.748 38.288 349.076 37.648C348.436 36.976 347.46 36.64 346.148 36.64H339.86V43.744ZM378.793 64.48C375.849 64.48 373.289 64 371.113 63.04C368.937 62.08 367.241 60.64 366.025 58.72C364.809 56.768 364.137 54.336 364.009 51.424C363.977 50.048 363.961 48.672 363.961 47.296C363.961 45.92 363.977 44.528 364.009 43.12C364.137 40.24 364.809 37.824 366.025 35.872C367.273 33.888 368.985 32.4 371.161 31.408C373.337 30.416 375.881 29.92 378.793 29.92C381.673 29.92 384.201 30.416 386.377 31.408C388.585 32.4 390.313 33.888 391.561 35.872C392.809 37.824 393.481 40.24 393.577 43.12C393.641 44.528 393.673 45.92 393.673 47.296C393.673 48.672 393.641 50.048 393.577 51.424C393.449 54.336 392.777 56.768 391.561 58.72C390.345 60.64 388.649 62.08 386.473 63.04C384.297 64 381.737 64.48 378.793 64.48ZM378.793 57.568C380.489 57.568 381.865 57.056 382.921 56.032C384.009 55.008 384.585 53.376 384.649 51.136C384.713 49.728 384.745 48.4 384.745 47.152C384.745 45.904 384.713 44.608 384.649 43.264C384.585 41.76 384.297 40.544 383.785 39.616C383.305 38.656 382.633 37.952 381.769 37.504C380.905 37.056 379.913 36.832 378.793 36.832C377.705 36.832 376.729 37.056 375.865 37.504C375.001 37.952 374.313 38.656 373.801 39.616C373.289 40.544 373.001 41.76 372.937 43.264C372.905 44.608 372.889 45.904 372.889 47.152C372.889 48.4 372.905 49.728 372.937 51.136C373.033 53.376 373.609 55.008 374.665 56.032C375.721 57.056 377.097 57.568 378.793 57.568ZM407.313 64C406.961 64 406.673 63.888 406.449 63.664C406.225 63.44 406.113 63.152 406.113 62.8V37.936H397.569C397.217 37.936 396.929 37.824 396.705 37.6C396.481 37.344 396.369 37.056 396.369 36.736V31.6C396.369 31.248 396.481 30.96 396.705 30.736C396.929 30.512 397.217 30.4 397.569 30.4H423.393C423.745 30.4 424.033 30.512 424.257 30.736C424.481 30.96 424.593 31.248 424.593 31.6V36.736C424.593 37.056 424.481 37.344 424.257 37.6C424.033 37.824 423.745 37.936 423.393 37.936H414.849V62.8C414.849 63.152 414.737 63.44 414.513 63.664C414.289 63.888 414.001 64 413.649 64H407.313Z" fill="url(#paint0_linear_17_299)"/>
<rect x="10.2775" y="31.4504" width="41.6799" height="41.6799" fill="#EB5757" stroke="black" stroke-width="3.36364"/>
<circle cx="47.7408" cy="33.5218" r="20.8399" fill="#2F80ED"/>
<circle cx="47.7408" cy="33.5218" r="20.8399" fill="#F2C94C"/>
<circle cx="47.7408" cy="33.5218" r="20.8399" stroke="black" stroke-width="3.36364"/>
<path d="M33.4941 79.0282L56.5883 39.03L79.6825 79.0282H33.4941Z" fill="#27AE60" stroke="black" stroke-width="3.36364"/>
<mask id="mask0_17_299" style="mask-type:alpha" maskUnits="userSpaceOnUse" x="0" y="0" width="95" height="95">
<circle cx="47.5" cy="47.5" r="47.5" fill="#D9D9D9"/>
</mask>
<g mask="url(#mask0_17_299)">
<path fill-rule="evenodd" clip-rule="evenodd" d="M47.7186 94.3571C73.7183 94.3571 94.7953 73.2801 94.7953 47.2803C94.7953 21.2806 73.7183 0.203613 47.7186 0.203613C21.7188 0.203613 0.641846 21.2806 0.641846 47.2803C0.641846 73.2801 21.7188 94.3571 47.7186 94.3571Z" fill="url(#paint1_linear_17_299)"/>
<g filter="url(#filter0_d_17_299)">
<path d="M55.1366 48.5159C59.2945 44.323 59.9787 35.6439 75.4102 37.5208C86.1908 38.8319 90.5498 34.0328 92.5892 27.775C84.9116 10.6935 67.7481 -1.20117 47.8065 -1.20117C20.704 -1.20117 -1.26685 20.7697 -1.26685 47.8722C-1.26685 53.1834 -0.423084 58.2975 1.1377 63.0879C8.30056 71.561 12.4963 67.1966 17.8552 61.6224C21.875 57.441 29.6135 57.4779 36.6856 56.8427C47.8761 55.8376 51.6503 52.0316 55.1366 48.5159Z" fill="url(#paint2_linear_17_299)"/>
</g>
<path d="M92.5897 27.7749C90.5503 34.0327 86.1913 38.8318 75.4107 37.5207C59.9792 35.6439 59.2949 44.3229 55.137 48.5159C51.6507 52.0316 47.8765 55.8376 36.686 56.8426C29.6139 57.4778 21.8755 57.4409 17.8556 61.6223C12.4968 67.1966 8.30105 71.5609 1.13818 63.0878" stroke="#FACAB9" stroke-width="1.26667"/>
<circle cx="47.5" cy="47.5" r="46.2333" stroke="black" stroke-width="2.53333"/>
</g>
<defs>
<filter id="filter0_d_17_299" x="-2.53351" y="-1.20117" width="96.3893" height="71.5729" filterUnits="userSpaceOnUse" color-interpolation-filters="sRGB">
<feFlood flood-opacity="0" result="BackgroundImageFix"/>
<feColorMatrix in="SourceAlpha" type="matrix" values="0 0 0 0 0 0 0 0 0 0 0 0 0 0 0 0 0 0 127 0" result="hardAlpha"/>
<feOffset dy="1.26667"/>
<feGaussianBlur stdDeviation="0.633333"/>
<feComposite in2="hardAlpha" operator="out"/>
<feColorMatrix type="matrix" values="0 0 0 0 0 0 0 0 0 0 0 0 0 0 0 0 0 0 1 0"/>
<feBlend mode="normal" in2="BackgroundImageFix" result="effect1_dropShadow_17_299"/>
<feBlend mode="normal" in="SourceGraphic" in2="effect1_dropShadow_17_299" result="shape"/>
</filter>
<linearGradient id="paint0_linear_17_299" x1="177.628" y1="9.50007" x2="627.393" y2="97.8265" gradientUnits="userSpaceOnUse">
<stop stop-color="#EB3800"/>
<stop offset="0.594347" stop-color="#F0B966"/>
</linearGradient>
<linearGradient id="paint1_linear_17_299" x1="69.4185" y1="87.3684" x2="37.4211" y2="15.65" gradientUnits="userSpaceOnUse">
<stop stop-color="#0D0C0C"/>
<stop offset="1" stop-color="#363232"/>
</linearGradient>
<linearGradient id="paint2_linear_17_299" x1="-1.26685" y1="-1.20117" x2="52.3558" y2="131.452" gradientUnits="userSpaceOnUse">
<stop stop-color="#EB3800"/>
<stop offset="0.620518" stop-color="#FDC1A8"/>
</linearGradient>
</defs>
</svg>
