<svg width="527" height="120" viewBox="0 0 527 120" fill="none" xmlns="http://www.w3.org/2000/svg">
<rect x="3" y="3" width="521" height="114" fill="#F2C94C" stroke="black" stroke-width="6"/>
<path d="M179.961 68.1113C179.381 73.0742 177.544 76.9092 174.45 79.6162C171.378 82.3018 167.285 83.6445 162.172 83.6445C156.629 83.6445 152.182 81.6572 148.83 77.6826C145.5 73.708 143.835 68.3906 143.835 61.7305V57.2188C143.835 52.8574 144.608 49.0225 146.155 45.7139C147.724 42.4053 149.937 39.8701 152.794 38.1084C155.651 36.3252 158.96 35.4336 162.72 35.4336C167.704 35.4336 171.7 36.8301 174.708 39.623C177.716 42.3945 179.467 46.2402 179.961 51.1602H173.741C173.204 47.4219 172.033 44.7148 170.229 43.0391C168.445 41.3633 165.942 40.5254 162.72 40.5254C158.767 40.5254 155.662 41.9863 153.406 44.9082C151.172 47.8301 150.055 51.9873 150.055 57.3799V61.9238C150.055 67.0156 151.118 71.0654 153.245 74.0732C155.372 77.0811 158.348 78.585 162.172 78.585C165.609 78.585 168.241 77.8115 170.067 76.2646C171.915 74.6963 173.14 71.9785 173.741 68.1113H179.961ZM198.91 74.2666L207.031 48.1309H213.412L199.394 88.3818C197.224 94.1826 193.775 97.083 189.049 97.083L187.921 96.9863L185.697 96.5674V91.7334L187.309 91.8623C189.328 91.8623 190.896 91.4541 192.014 90.6377C193.152 89.8213 194.087 88.3281 194.817 86.1582L196.139 82.6133L183.699 48.1309H190.209L198.91 74.2666ZM224.369 48.1309L224.53 51.998C227.087 48.9902 230.535 47.4863 234.875 47.4863C239.752 47.4863 243.071 49.3555 244.833 53.0938C245.993 51.418 247.497 50.0645 249.345 49.0332C251.214 48.002 253.416 47.4863 255.951 47.4863C263.6 47.4863 267.488 51.5361 267.617 59.6357V83H261.655V59.9902C261.655 57.498 261.086 55.6396 259.947 54.415C258.809 53.1689 256.896 52.5459 254.211 52.5459C251.998 52.5459 250.161 53.2119 248.7 54.5439C247.239 55.8545 246.391 57.627 246.154 59.8613V83H240.16V60.1514C240.16 55.0811 237.679 52.5459 232.716 52.5459C228.806 52.5459 226.131 54.2109 224.691 57.541V83H218.729V48.1309H224.369ZM306.096 65.9521C306.096 71.2588 304.882 75.5342 302.454 78.7783C300.026 82.0225 296.739 83.6445 292.593 83.6445C288.36 83.6445 285.03 82.3018 282.603 79.6162V96.4062H276.641V48.1309H282.087L282.377 51.998C284.805 48.9902 288.178 47.4863 292.496 47.4863C296.686 47.4863 299.994 49.0654 302.422 52.2236C304.871 55.3818 306.096 59.7754 306.096 65.4043V65.9521ZM300.134 65.2754C300.134 61.3438 299.296 58.2393 297.62 55.9619C295.944 53.6846 293.646 52.5459 290.724 52.5459C287.114 52.5459 284.407 54.1465 282.603 57.3477V74.0088C284.386 77.1885 287.114 78.7783 290.788 78.7783C293.646 78.7783 295.912 77.6504 297.588 75.3945C299.285 73.1172 300.134 69.7441 300.134 65.2754ZM320.179 83H314.217V33.5H320.179V83ZM344.22 83.6445C339.493 83.6445 335.647 82.0977 332.683 79.0039C329.718 75.8887 328.235 71.7314 328.235 66.5322V65.4365C328.235 61.9775 328.891 58.8945 330.201 56.1875C331.533 53.459 333.381 51.332 335.744 49.8066C338.129 48.2598 340.707 47.4863 343.479 47.4863C348.012 47.4863 351.535 48.9795 354.049 51.9658C356.562 54.9521 357.819 59.2275 357.819 64.792V67.2734H334.197C334.283 70.7109 335.282 73.4932 337.194 75.6201C339.128 77.7256 341.577 78.7783 344.542 78.7783C346.647 78.7783 348.431 78.3486 349.892 77.4893C351.353 76.6299 352.631 75.4912 353.727 74.0732L357.368 76.9092C354.446 81.3994 350.063 83.6445 344.22 83.6445ZM343.479 52.3848C341.072 52.3848 339.053 53.2656 337.42 55.0273C335.787 56.7676 334.777 59.2168 334.391 62.375H351.857V61.9238C351.686 58.8945 350.869 56.5527 349.408 54.8984C347.947 53.2227 345.971 52.3848 343.479 52.3848ZM382.054 83V36.0781H397.394C402.485 36.0781 406.31 37.1309 408.866 39.2363C411.444 41.3418 412.733 44.457 412.733 48.582C412.733 50.7734 412.11 52.7178 410.864 54.415C409.618 56.0908 407.921 57.3906 405.772 58.3145C408.308 59.0234 410.306 60.377 411.767 62.375C413.249 64.3516 413.99 66.7148 413.99 69.4648C413.99 73.6758 412.626 76.9844 409.897 79.3906C407.169 81.7969 403.312 83 398.328 83H382.054ZM388.241 61.0537V77.9404H398.457C401.336 77.9404 403.603 77.1992 405.257 75.7168C406.933 74.2129 407.771 72.1504 407.771 69.5293C407.771 63.8789 404.698 61.0537 398.554 61.0537H388.241ZM388.241 56.0908H397.587C400.294 56.0908 402.453 55.4141 404.064 54.0605C405.697 52.707 406.514 50.8701 406.514 48.5498C406.514 45.9717 405.762 44.1025 404.258 42.9424C402.754 41.7607 400.466 41.1699 397.394 41.1699H388.241V56.0908ZM420.661 65.2432C420.661 61.8271 421.327 58.7549 422.659 56.0264C424.013 53.2979 425.882 51.1924 428.267 49.71C430.673 48.2275 433.412 47.4863 436.484 47.4863C441.232 47.4863 445.067 49.1299 447.989 52.417C450.933 55.7041 452.404 60.0762 452.404 65.5332V65.9521C452.404 69.3467 451.749 72.3975 450.438 75.1045C449.149 77.79 447.291 79.8848 444.863 81.3887C442.457 82.8926 439.686 83.6445 436.549 83.6445C431.822 83.6445 427.987 82.001 425.044 78.7139C422.122 75.4268 420.661 71.0762 420.661 65.6621V65.2432ZM426.655 65.9521C426.655 69.8193 427.547 72.9238 429.33 75.2656C431.135 77.6074 433.541 78.7783 436.549 78.7783C439.578 78.7783 441.984 77.5967 443.768 75.2334C445.551 72.8486 446.442 69.5186 446.442 65.2432C446.442 61.4189 445.529 58.3252 443.703 55.9619C441.898 53.5771 439.492 52.3848 436.484 52.3848C433.541 52.3848 431.167 53.5557 429.362 55.8975C427.558 58.2393 426.655 61.5908 426.655 65.9521ZM467.97 39.6875V48.1309H474.479V52.7393H467.97V74.3633C467.97 75.7598 468.26 76.8125 468.84 77.5215C469.42 78.209 470.408 78.5527 471.805 78.5527C472.492 78.5527 473.438 78.4238 474.641 78.166V83C473.072 83.4297 471.547 83.6445 470.064 83.6445C467.4 83.6445 465.392 82.8389 464.038 81.2275C462.685 79.6162 462.008 77.3281 462.008 74.3633V52.7393H455.659V48.1309H462.008V39.6875H467.97Z" fill="black"/>
<rect x="36.6818" y="45.4504" width="41.6799" height="41.6799" fill="#EB5757" stroke="black" stroke-width="3.36364"/>
<circle cx="74.1451" cy="47.5218" r="20.8399" fill="#2F80ED" stroke="black" stroke-width="3.36364"/>
<path d="M59.8984 93.0282L82.9926 53.03L106.087 93.0282H59.8984Z" fill="#27AE60" stroke="black" stroke-width="3.36364"/>
</svg>
