<svg width="426" height="95" viewBox="0 0 426 95" fill="none" xmlns="http://www.w3.org/2000/svg">
<path d="M127.732 64.48C124.692 64.48 122.084 63.984 119.908 62.992C117.764 62 116.084 60.544 114.868 58.624C113.684 56.704 113.028 54.32 112.9 51.472C112.868 50.16 112.852 48.752 112.852 47.248C112.852 45.744 112.868 44.304 112.9 42.928C113.028 40.144 113.7 37.792 114.916 35.872C116.132 33.92 117.828 32.448 120.004 31.456C122.18 30.432 124.756 29.92 127.732 29.92C129.844 29.92 131.796 30.192 133.588 30.736C135.38 31.248 136.948 32.016 138.292 33.04C139.636 34.032 140.676 35.248 141.412 36.688C142.18 38.096 142.58 39.696 142.612 41.488C142.644 41.776 142.548 42.016 142.324 42.208C142.132 42.4 141.892 42.496 141.604 42.496H135.124C134.708 42.496 134.388 42.416 134.164 42.256C133.94 42.064 133.748 41.728 133.588 41.248C133.14 39.552 132.404 38.4 131.38 37.792C130.388 37.152 129.156 36.832 127.684 36.832C125.924 36.832 124.532 37.328 123.508 38.32C122.484 39.28 121.924 40.896 121.828 43.168C121.732 45.792 121.732 48.48 121.828 51.232C121.924 53.504 122.484 55.136 123.508 56.128C124.532 57.088 125.924 57.568 127.684 57.568C129.156 57.568 130.404 57.248 131.428 56.608C132.452 55.968 133.172 54.816 133.588 53.152C133.716 52.672 133.892 52.352 134.116 52.192C134.372 52 134.708 51.904 135.124 51.904H141.604C141.892 51.904 142.132 52 142.324 52.192C142.548 52.384 142.644 52.624 142.612 52.912C142.58 54.704 142.18 56.32 141.412 57.76C140.676 59.168 139.636 60.384 138.292 61.408C136.948 62.4 135.38 63.168 133.588 63.712C131.796 64.224 129.844 64.48 127.732 64.48ZM156.561 64C156.241 64 155.953 63.888 155.697 63.664C155.473 63.44 155.361 63.152 155.361 62.8V52.48L144.225 31.936C144.193 31.84 144.161 31.76 144.129 31.696C144.097 31.6 144.081 31.504 144.081 31.408C144.081 31.152 144.177 30.928 144.369 30.736C144.593 30.512 144.849 30.4 145.137 30.4H151.137C151.617 30.4 151.985 30.528 152.241 30.784C152.529 31.008 152.705 31.216 152.769 31.408L159.681 43.792L166.593 31.408C166.689 31.216 166.865 31.008 167.121 30.784C167.409 30.528 167.793 30.4 168.273 30.4H174.273C174.561 30.4 174.801 30.512 174.993 30.736C175.185 30.928 175.281 31.152 175.281 31.408C175.281 31.504 175.265 31.6 175.233 31.696C175.233 31.76 175.217 31.84 175.185 31.936L164.001 52.48V62.8C164.001 63.152 163.889 63.44 163.665 63.664C163.441 63.888 163.153 64 162.801 64H156.561ZM180.593 64C180.273 64 179.985 63.888 179.729 63.664C179.505 63.44 179.393 63.152 179.393 62.8V31.6C179.393 31.248 179.505 30.96 179.729 30.736C179.985 30.512 180.273 30.4 180.593 30.4H185.777C186.289 30.4 186.673 30.544 186.929 30.832C187.217 31.088 187.393 31.296 187.457 31.456L195.905 46.624L204.353 31.456C204.449 31.296 204.609 31.088 204.833 30.832C205.089 30.544 205.489 30.4 206.033 30.4H211.169C211.521 30.4 211.809 30.512 212.033 30.736C212.289 30.96 212.417 31.248 212.417 31.6V62.8C212.417 63.152 212.289 63.44 212.033 63.664C211.809 63.888 211.521 64 211.169 64H205.457C205.105 64 204.801 63.888 204.545 63.664C204.321 63.44 204.209 63.152 204.209 62.8V44.8L198.785 54.832C198.657 55.12 198.465 55.376 198.209 55.6C197.953 55.824 197.601 55.936 197.153 55.936H194.657C194.209 55.936 193.857 55.824 193.601 55.6C193.345 55.376 193.137 55.12 192.977 54.832L187.553 44.8V62.8C187.553 63.152 187.441 63.44 187.217 63.664C186.993 63.888 186.705 64 186.353 64H180.593ZM220.296 64C219.944 64 219.656 63.888 219.432 63.664C219.208 63.44 219.096 63.152 219.096 62.8V31.6C219.096 31.248 219.208 30.96 219.432 30.736C219.656 30.512 219.944 30.4 220.296 30.4H233.736C236.392 30.4 238.696 30.816 240.648 31.648C242.632 32.448 244.168 33.664 245.256 35.296C246.376 36.928 246.936 38.992 246.936 41.488C246.936 43.952 246.376 45.984 245.256 47.584C244.168 49.184 242.632 50.368 240.648 51.136C238.696 51.904 236.392 52.288 233.736 52.288H228.024V62.8C228.024 63.152 227.896 63.44 227.64 63.664C227.416 63.888 227.128 64 226.776 64H220.296ZM227.88 45.664H233.496C234.872 45.664 235.96 45.312 236.76 44.608C237.592 43.904 238.008 42.832 238.008 41.392C238.008 40.176 237.656 39.152 236.952 38.32C236.248 37.488 235.096 37.072 233.496 37.072H227.88V45.664ZM252.734 64C252.382 64 252.094 63.888 251.87 63.664C251.646 63.44 251.534 63.152 251.534 62.8V31.6C251.534 31.248 251.646 30.96 251.87 30.736C252.094 30.512 252.382 30.4 252.734 30.4H259.07C259.39 30.4 259.662 30.512 259.886 30.736C260.142 30.96 260.27 31.248 260.27 31.6V56.752H274.766C275.118 56.752 275.406 56.88 275.63 57.136C275.886 57.36 276.014 57.648 276.014 58V62.8C276.014 63.152 275.886 63.44 275.63 63.664C275.406 63.888 275.118 64 274.766 64H252.734ZM281.374 64C281.022 64 280.734 63.888 280.51 63.664C280.286 63.44 280.174 63.152 280.174 62.8V31.6C280.174 31.248 280.286 30.96 280.51 30.736C280.734 30.512 281.022 30.4 281.374 30.4H303.79C304.142 30.4 304.43 30.512 304.654 30.736C304.878 30.96 304.99 31.248 304.99 31.6V36.112C304.99 36.464 304.878 36.752 304.654 36.976C304.43 37.2 304.142 37.312 303.79 37.312H288.478V43.792H302.734C303.086 43.792 303.374 43.92 303.598 44.176C303.822 44.4 303.934 44.688 303.934 45.04V49.216C303.934 49.536 303.822 49.824 303.598 50.08C303.374 50.304 303.086 50.416 302.734 50.416H288.478V57.088H304.174C304.526 57.088 304.814 57.2 305.038 57.424C305.262 57.648 305.374 57.936 305.374 58.288V62.8C305.374 63.152 305.262 63.44 305.038 63.664C304.814 63.888 304.526 64 304.174 64H281.374ZM332.468 64C332.116 64 331.828 63.888 331.604 63.664C331.38 63.44 331.268 63.152 331.268 62.8V31.6C331.268 31.248 331.38 30.96 331.604 30.736C331.828 30.512 332.116 30.4 332.468 30.4H347.108C349.86 30.4 352.116 30.784 353.876 31.552C355.636 32.32 356.932 33.424 357.764 34.864C358.628 36.272 359.06 37.952 359.06 39.904C359.06 41.056 358.836 42.08 358.388 42.976C357.972 43.84 357.444 44.56 356.804 45.136C356.196 45.712 355.62 46.128 355.076 46.384C356.292 46.96 357.364 47.904 358.292 49.216C359.252 50.528 359.732 52.064 359.732 53.824C359.732 55.936 359.252 57.76 358.292 59.296C357.364 60.8 355.988 61.968 354.164 62.8C352.372 63.6 350.164 64 347.54 64H332.468ZM339.86 57.76H346.58C347.956 57.76 348.996 57.36 349.7 56.56C350.404 55.76 350.756 54.848 350.756 53.824C350.756 52.704 350.388 51.76 349.652 50.992C348.948 50.224 347.924 49.84 346.58 49.84H339.86V57.76ZM339.86 43.744H346.148C347.46 43.744 348.436 43.408 349.076 42.736C349.748 42.064 350.084 41.2 350.084 40.144C350.084 39.12 349.748 38.288 349.076 37.648C348.436 36.976 347.46 36.64 346.148 36.64H339.86V43.744ZM378.793 64.48C375.849 64.48 373.289 64 371.113 63.04C368.937 62.08 367.241 60.64 366.025 58.72C364.809 56.768 364.137 54.336 364.009 51.424C363.977 50.048 363.961 48.672 363.961 47.296C363.961 45.92 363.977 44.528 364.009 43.12C364.137 40.24 364.809 37.824 366.025 35.872C367.273 33.888 368.985 32.4 371.161 31.408C373.337 30.416 375.881 29.92 378.793 29.92C381.673 29.92 384.201 30.416 386.377 31.408C388.585 32.4 390.313 33.888 391.561 35.872C392.809 37.824 393.481 40.24 393.577 43.12C393.641 44.528 393.673 45.92 393.673 47.296C393.673 48.672 393.641 50.048 393.577 51.424C393.449 54.336 392.777 56.768 391.561 58.72C390.345 60.64 388.649 62.08 386.473 63.04C384.297 64 381.737 64.48 378.793 64.48ZM378.793 57.568C380.489 57.568 381.865 57.056 382.921 56.032C384.009 55.008 384.585 53.376 384.649 51.136C384.713 49.728 384.745 48.4 384.745 47.152C384.745 45.904 384.713 44.608 384.649 43.264C384.585 41.76 384.297 40.544 383.785 39.616C383.305 38.656 382.633 37.952 381.769 37.504C380.905 37.056 379.913 36.832 378.793 36.832C377.705 36.832 376.729 37.056 375.865 37.504C375.001 37.952 374.313 38.656 373.801 39.616C373.289 40.544 373.001 41.76 372.937 43.264C372.905 44.608 372.889 45.904 372.889 47.152C372.889 48.4 372.905 49.728 372.937 51.136C373.033 53.376 373.609 55.008 374.665 56.032C375.721 57.056 377.097 57.568 378.793 57.568ZM407.313 64C406.961 64 406.673 63.888 406.449 63.664C406.225 63.44 406.113 63.152 406.113 62.8V37.936H397.569C397.217 37.936 396.929 37.824 396.705 37.6C396.481 37.344 396.369 37.056 396.369 36.736V31.6C396.369 31.248 396.481 30.96 396.705 30.736C396.929 30.512 397.217 30.4 397.569 30.4H423.393C423.745 30.4 424.033 30.512 424.257 30.736C424.481 30.96 424.593 31.248 424.593 31.6V36.736C424.593 37.056 424.481 37.344 424.257 37.6C424.033 37.824 423.745 37.936 423.393 37.936H414.849V62.8C414.849 63.152 414.737 63.44 414.513 63.664C414.289 63.888 414.001 64 413.649 64H407.313Z" fill="#EFEFE7"/>
<path d="M127.732 64.48C124.692 64.48 122.084 63.984 119.908 62.992C117.764 62 116.084 60.544 114.868 58.624C113.684 56.704 113.028 54.32 112.9 51.472C112.868 50.16 112.852 48.752 112.852 47.248C112.852 45.744 112.868 44.304 112.9 42.928C113.028 40.144 113.7 37.792 114.916 35.872C116.132 33.92 117.828 32.448 120.004 31.456C122.18 30.432 124.756 29.92 127.732 29.92C129.844 29.92 131.796 30.192 133.588 30.736C135.38 31.248 136.948 32.016 138.292 33.04C139.636 34.032 140.676 35.248 141.412 36.688C142.18 38.096 142.58 39.696 142.612 41.488C142.644 41.776 142.548 42.016 142.324 42.208C142.132 42.4 141.892 42.496 141.604 42.496H135.124C134.708 42.496 134.388 42.416 134.164 42.256C133.94 42.064 133.748 41.728 133.588 41.248C133.14 39.552 132.404 38.4 131.38 37.792C130.388 37.152 129.156 36.832 127.684 36.832C125.924 36.832 124.532 37.328 123.508 38.32C122.484 39.28 121.924 40.896 121.828 43.168C121.732 45.792 121.732 48.48 121.828 51.232C121.924 53.504 122.484 55.136 123.508 56.128C124.532 57.088 125.924 57.568 127.684 57.568C129.156 57.568 130.404 57.248 131.428 56.608C132.452 55.968 133.172 54.816 133.588 53.152C133.716 52.672 133.892 52.352 134.116 52.192C134.372 52 134.708 51.904 135.124 51.904H141.604C141.892 51.904 142.132 52 142.324 52.192C142.548 52.384 142.644 52.624 142.612 52.912C142.58 54.704 142.18 56.32 141.412 57.76C140.676 59.168 139.636 60.384 138.292 61.408C136.948 62.4 135.38 63.168 133.588 63.712C131.796 64.224 129.844 64.48 127.732 64.48ZM156.561 64C156.241 64 155.953 63.888 155.697 63.664C155.473 63.44 155.361 63.152 155.361 62.8V52.48L144.225 31.936C144.193 31.84 144.161 31.76 144.129 31.696C144.097 31.6 144.081 31.504 144.081 31.408C144.081 31.152 144.177 30.928 144.369 30.736C144.593 30.512 144.849 30.4 145.137 30.4H151.137C151.617 30.4 151.985 30.528 152.241 30.784C152.529 31.008 152.705 31.216 152.769 31.408L159.681 43.792L166.593 31.408C166.689 31.216 166.865 31.008 167.121 30.784C167.409 30.528 167.793 30.4 168.273 30.4H174.273C174.561 30.4 174.801 30.512 174.993 30.736C175.185 30.928 175.281 31.152 175.281 31.408C175.281 31.504 175.265 31.6 175.233 31.696C175.233 31.76 175.217 31.84 175.185 31.936L164.001 52.48V62.8C164.001 63.152 163.889 63.44 163.665 63.664C163.441 63.888 163.153 64 162.801 64H156.561ZM180.593 64C180.273 64 179.985 63.888 179.729 63.664C179.505 63.44 179.393 63.152 179.393 62.8V31.6C179.393 31.248 179.505 30.96 179.729 30.736C179.985 30.512 180.273 30.4 180.593 30.4H185.777C186.289 30.4 186.673 30.544 186.929 30.832C187.217 31.088 187.393 31.296 187.457 31.456L195.905 46.624L204.353 31.456C204.449 31.296 204.609 31.088 204.833 30.832C205.089 30.544 205.489 30.4 206.033 30.4H211.169C211.521 30.4 211.809 30.512 212.033 30.736C212.289 30.96 212.417 31.248 212.417 31.6V62.8C212.417 63.152 212.289 63.44 212.033 63.664C211.809 63.888 211.521 64 211.169 64H205.457C205.105 64 204.801 63.888 204.545 63.664C204.321 63.44 204.209 63.152 204.209 62.8V44.8L198.785 54.832C198.657 55.12 198.465 55.376 198.209 55.6C197.953 55.824 197.601 55.936 197.153 55.936H194.657C194.209 55.936 193.857 55.824 193.601 55.6C193.345 55.376 193.137 55.12 192.977 54.832L187.553 44.8V62.8C187.553 63.152 187.441 63.44 187.217 63.664C186.993 63.888 186.705 64 186.353 64H180.593ZM220.296 64C219.944 64 219.656 63.888 219.432 63.664C219.208 63.44 219.096 63.152 219.096 62.8V31.6C219.096 31.248 219.208 30.96 219.432 30.736C219.656 30.512 219.944 30.4 220.296 30.4H233.736C236.392 30.4 238.696 30.816 240.648 31.648C242.632 32.448 244.168 33.664 245.256 35.296C246.376 36.928 246.936 38.992 246.936 41.488C246.936 43.952 246.376 45.984 245.256 47.584C244.168 49.184 242.632 50.368 240.648 51.136C238.696 51.904 236.392 52.288 233.736 52.288H228.024V62.8C228.024 63.152 227.896 63.44 227.64 63.664C227.416 63.888 227.128 64 226.776 64H220.296ZM227.88 45.664H233.496C234.872 45.664 235.96 45.312 236.76 44.608C237.592 43.904 238.008 42.832 238.008 41.392C238.008 40.176 237.656 39.152 236.952 38.32C236.248 37.488 235.096 37.072 233.496 37.072H227.88V45.664ZM252.734 64C252.382 64 252.094 63.888 251.87 63.664C251.646 63.44 251.534 63.152 251.534 62.8V31.6C251.534 31.248 251.646 30.96 251.87 30.736C252.094 30.512 252.382 30.4 252.734 30.4H259.07C259.39 30.4 259.662 30.512 259.886 30.736C260.142 30.96 260.27 31.248 260.27 31.6V56.752H274.766C275.118 56.752 275.406 56.88 275.63 57.136C275.886 57.36 276.014 57.648 276.014 58V62.8C276.014 63.152 275.886 63.44 275.63 63.664C275.406 63.888 275.118 64 274.766 64H252.734ZM281.374 64C281.022 64 280.734 63.888 280.51 63.664C280.286 63.44 280.174 63.152 280.174 62.8V31.6C280.174 31.248 280.286 30.96 280.51 30.736C280.734 30.512 281.022 30.4 281.374 30.4H303.79C304.142 30.4 304.43 30.512 304.654 30.736C304.878 30.96 304.99 31.248 304.99 31.6V36.112C304.99 36.464 304.878 36.752 304.654 36.976C304.43 37.2 304.142 37.312 303.79 37.312H288.478V43.792H302.734C303.086 43.792 303.374 43.92 303.598 44.176C303.822 44.4 303.934 44.688 303.934 45.04V49.216C303.934 49.536 303.822 49.824 303.598 50.08C303.374 50.304 303.086 50.416 302.734 50.416H288.478V57.088H304.174C304.526 57.088 304.814 57.2 305.038 57.424C305.262 57.648 305.374 57.936 305.374 58.288V62.8C305.374 63.152 305.262 63.44 305.038 63.664C304.814 63.888 304.526 64 304.174 64H281.374ZM332.468 64C332.116 64 331.828 63.888 331.604 63.664C331.38 63.44 331.268 63.152 331.268 62.8V31.6C331.268 31.248 331.38 30.96 331.604 30.736C331.828 30.512 332.116 30.4 332.468 30.4H347.108C349.86 30.4 352.116 30.784 353.876 31.552C355.636 32.32 356.932 33.424 357.764 34.864C358.628 36.272 359.06 37.952 359.06 39.904C359.06 41.056 358.836 42.08 358.388 42.976C357.972 43.84 357.444 44.56 356.804 45.136C356.196 45.712 355.62 46.128 355.076 46.384C356.292 46.96 357.364 47.904 358.292 49.216C359.252 50.528 359.732 52.064 359.732 53.824C359.732 55.936 359.252 57.76 358.292 59.296C357.364 60.8 355.988 61.968 354.164 62.8C352.372 63.6 350.164 64 347.54 64H332.468ZM339.86 57.76H346.58C347.956 57.76 348.996 57.36 349.7 56.56C350.404 55.76 350.756 54.848 350.756 53.824C350.756 52.704 350.388 51.76 349.652 50.992C348.948 50.224 347.924 49.84 346.58 49.84H339.86V57.76ZM339.86 43.744H346.148C347.46 43.744 348.436 43.408 349.076 42.736C349.748 42.064 350.084 41.2 350.084 40.144C350.084 39.12 349.748 38.288 349.076 37.648C348.436 36.976 347.46 36.64 346.148 36.64H339.86V43.744ZM378.793 64.48C375.849 64.48 373.289 64 371.113 63.04C368.937 62.08 367.241 60.64 366.025 58.72C364.809 56.768 364.137 54.336 364.009 51.424C363.977 50.048 363.961 48.672 363.961 47.296C363.961 45.92 363.977 44.528 364.009 43.12C364.137 40.24 364.809 37.824 366.025 35.872C367.273 33.888 368.985 32.4 371.161 31.408C373.337 30.416 375.881 29.92 378.793 29.92C381.673 29.92 384.201 30.416 386.377 31.408C388.585 32.4 390.313 33.888 391.561 35.872C392.809 37.824 393.481 40.24 393.577 43.12C393.641 44.528 393.673 45.92 393.673 47.296C393.673 48.672 393.641 50.048 393.577 51.424C393.449 54.336 392.777 56.768 391.561 58.72C390.345 60.64 388.649 62.08 386.473 63.04C384.297 64 381.737 64.48 378.793 64.48ZM378.793 57.568C380.489 57.568 381.865 57.056 382.921 56.032C384.009 55.008 384.585 53.376 384.649 51.136C384.713 49.728 384.745 48.4 384.745 47.152C384.745 45.904 384.713 44.608 384.649 43.264C384.585 41.76 384.297 40.544 383.785 39.616C383.305 38.656 382.633 37.952 381.769 37.504C380.905 37.056 379.913 36.832 378.793 36.832C377.705 36.832 376.729 37.056 375.865 37.504C375.001 37.952 374.313 38.656 373.801 39.616C373.289 40.544 373.001 41.76 372.937 43.264C372.905 44.608 372.889 45.904 372.889 47.152C372.889 48.4 372.905 49.728 372.937 51.136C373.033 53.376 373.609 55.008 374.665 56.032C375.721 57.056 377.097 57.568 378.793 57.568ZM407.313 64C406.961 64 406.673 63.888 406.449 63.664C406.225 63.44 406.113 63.152 406.113 62.8V37.936H397.569C397.217 37.936 396.929 37.824 396.705 37.6C396.481 37.344 396.369 37.056 396.369 36.736V31.6C396.369 31.248 396.481 30.96 396.705 30.736C396.929 30.512 397.217 30.4 397.569 30.4H423.393C423.745 30.4 424.033 30.512 424.257 30.736C424.481 30.96 424.593 31.248 424.593 31.6V36.736C424.593 37.056 424.481 37.344 424.257 37.6C424.033 37.824 423.745 37.936 423.393 37.936H414.849V62.8C414.849 63.152 414.737 63.44 414.513 63.664C414.289 63.888 414.001 64 413.649 64H407.313Z" fill="url(#paint0_linear_17_182)"/>
<path d="M119.908 62.992L119.488 63.8996L119.493 63.9019L119.908 62.992ZM114.868 58.624L114.016 59.1489L114.023 59.1591L114.868 58.624ZM112.9 51.472L111.9 51.4964L111.9 51.5066L111.901 51.5169L112.9 51.472ZM112.9 42.928L111.901 42.8821L111.9 42.8934L111.9 42.9047L112.9 42.928ZM114.916 35.872L115.761 36.4071L115.764 36.4007L114.916 35.872ZM120.004 31.456L120.419 32.366L120.43 32.3608L120.004 31.456ZM133.588 30.736L133.297 31.6929L133.305 31.6953L133.313 31.6975L133.588 30.736ZM138.292 33.04L137.686 33.8354L137.692 33.84L137.698 33.8446L138.292 33.04ZM141.412 36.688L140.521 37.1431L140.527 37.1551L140.534 37.1669L141.412 36.688ZM142.612 41.488L141.612 41.5059L141.613 41.5523L141.618 41.5984L142.612 41.488ZM142.324 42.208L141.673 41.4487L141.644 41.4737L141.617 41.5009L142.324 42.208ZM134.164 42.256L133.513 43.0153L133.546 43.044L133.582 43.0697L134.164 42.256ZM133.588 41.248L132.621 41.5034L132.629 41.5341L132.639 41.5642L133.588 41.248ZM131.38 37.792L130.838 38.6323L130.853 38.6424L130.869 38.6519L131.38 37.792ZM123.508 38.32L124.192 39.0495L124.198 39.0439L124.203 39.0382L123.508 38.32ZM121.828 43.168L120.829 43.1258L120.828 43.1314L121.828 43.168ZM121.828 51.232L120.828 51.2669L120.829 51.2742L121.828 51.232ZM123.508 56.128L122.812 56.8462L122.818 56.8519L122.824 56.8575L123.508 56.128ZM131.428 56.608L130.898 55.76L130.898 55.76L131.428 56.608ZM133.588 53.152L132.621 52.8943L132.619 52.9019L132.618 52.9095L133.588 53.152ZM134.116 52.192L134.697 53.0057L134.706 52.999L134.716 52.992L134.116 52.192ZM142.324 52.192L141.617 52.8991L141.644 52.9263L141.673 52.9513L142.324 52.192ZM142.612 52.912L141.618 52.8016L141.613 52.8477L141.612 52.8941L142.612 52.912ZM141.412 57.76L140.529 57.2894L140.525 57.2967L141.412 57.76ZM138.292 61.408L138.886 62.2126L138.892 62.208L138.898 62.2034L138.292 61.408ZM133.588 63.712L133.862 64.6735L133.87 64.6713L133.878 64.6689L133.588 63.712ZM127.732 63.48C124.797 63.48 122.338 63.0009 120.323 62.0821L119.493 63.9019C121.829 64.9671 124.586 65.48 127.732 65.48V63.48ZM120.328 62.0844C118.351 61.1698 116.821 59.8399 115.713 58.0889L114.023 59.1591C115.346 61.2481 117.177 62.8302 119.488 63.8996L120.328 62.0844ZM115.719 58.0991C114.645 56.3573 114.021 54.1491 113.899 51.4271L111.901 51.5169C112.034 54.4909 112.723 57.0507 114.017 59.1489L115.719 58.0991ZM113.899 51.4476C113.868 50.1448 113.852 48.745 113.852 47.248H111.852C111.852 48.759 111.868 50.1752 111.9 51.4964L113.899 51.4476ZM113.852 47.248C113.852 45.751 113.868 44.3188 113.899 42.9512L111.9 42.9047C111.868 44.2892 111.852 45.737 111.852 47.248H113.852ZM113.899 42.9739C114.02 40.3246 114.656 38.1504 115.761 36.4071L114.071 35.3369C112.743 37.4336 112.035 39.9634 111.901 42.8821L113.899 42.9739ZM115.764 36.4007C116.872 34.6226 118.414 33.2797 120.419 32.3659L119.589 30.5461C117.241 31.6163 115.391 33.2174 114.067 35.3433L115.764 36.4007ZM120.43 32.3608C122.445 31.4126 124.869 30.92 127.732 30.92V28.92C124.643 28.92 121.915 29.4514 119.578 30.5512L120.43 32.3608ZM127.732 30.92C129.758 30.92 131.611 31.1809 133.297 31.6929L133.878 29.7791C131.981 29.2031 129.93 28.92 127.732 28.92V30.92ZM133.313 31.6975C134.998 32.1788 136.451 32.8944 137.686 33.8354L138.898 32.2446C137.445 31.1376 135.762 30.3172 133.862 29.7745L133.313 31.6975ZM137.698 33.8446C138.922 34.7477 139.858 35.8456 140.521 37.1431L142.302 36.2329C141.493 34.6504 140.35 33.3163 138.886 32.2354L137.698 33.8446ZM140.534 37.1669C141.216 38.4173 141.582 39.8559 141.612 41.5059L143.612 41.4701C143.577 39.5361 143.144 37.7747 142.29 36.2091L140.534 37.1669ZM141.618 41.5984C141.618 41.599 141.615 41.5631 141.635 41.5126C141.655 41.4628 141.68 41.4428 141.673 41.4487L142.974 42.9673C143.444 42.5646 143.675 42.0015 143.606 41.3776L141.618 41.5984ZM141.617 41.5009C141.613 41.5045 141.613 41.5041 141.616 41.5019C141.619 41.4997 141.624 41.4973 141.628 41.4955C141.633 41.4937 141.634 41.4936 141.632 41.4941C141.629 41.4946 141.62 41.496 141.604 41.496V43.496C142.139 43.496 142.639 43.3069 143.031 42.9151L141.617 41.5009ZM141.604 41.496H135.124V43.496H141.604V41.496ZM135.124 41.496C134.816 41.496 134.733 41.4335 134.745 41.4423L133.582 43.0697C134.043 43.3985 134.6 43.496 135.124 43.496V41.496ZM134.814 41.4967C134.794 41.4796 134.675 41.3479 134.536 40.9318L132.639 41.5642C132.82 42.1081 133.085 42.6484 133.513 43.0153L134.814 41.4967ZM134.555 40.9926C134.071 39.1621 133.227 37.7259 131.89 36.9321L130.869 38.6519C131.58 39.0741 132.208 39.9419 132.621 41.5034L134.555 40.9926ZM131.922 36.9517C130.733 36.1844 129.301 35.832 127.684 35.832V37.832C129.011 37.832 130.043 38.1196 130.838 38.6323L131.922 36.9517ZM127.684 35.832C125.728 35.832 124.064 36.3888 122.812 37.6018L124.203 39.0382C124.999 38.2672 126.119 37.832 127.684 37.832V35.832ZM122.824 37.5905C121.52 38.8131 120.929 40.747 120.829 43.1258L122.827 43.2102C122.918 41.045 123.448 39.7469 124.192 39.0495L122.824 37.5905ZM120.828 43.1314C120.731 45.7804 120.732 48.4922 120.828 51.2669L122.827 51.1971C122.732 48.4678 122.732 45.8036 122.827 43.2046L120.828 43.1314ZM120.829 51.2742C120.929 53.6565 121.521 55.5955 122.812 56.8462L124.203 55.4098C123.447 54.6765 122.918 53.3515 122.827 51.1898L120.829 51.2742ZM122.824 56.8575C124.077 58.0325 125.737 58.568 127.684 58.568V56.568C126.11 56.568 124.986 56.1435 124.192 55.3985L122.824 56.8575ZM127.684 58.568C129.302 58.568 130.743 58.2151 131.958 57.456L130.898 55.76C130.064 56.2809 129.009 56.568 127.684 56.568V58.568ZM131.958 57.456C133.279 56.6301 134.106 55.2037 134.558 53.3945L132.618 52.9095C132.238 54.4283 131.624 55.3059 130.898 55.76L131.958 57.456ZM134.554 53.4097C134.604 53.2218 134.654 53.1029 134.692 53.0339C134.73 52.9643 134.74 52.975 134.697 53.0057L133.534 51.3783C133.02 51.7457 132.767 52.3504 132.621 52.8943L134.554 53.4097ZM134.716 52.992C134.753 52.9641 134.859 52.904 135.124 52.904V50.904C134.556 50.904 133.99 51.0359 133.516 51.392L134.716 52.992ZM135.124 52.904H141.604V50.904H135.124V52.904ZM141.604 52.904C141.62 52.904 141.629 52.9054 141.632 52.9059C141.634 52.9063 141.633 52.9063 141.628 52.9045C141.624 52.9027 141.619 52.9003 141.616 52.898C141.613 52.8959 141.613 52.8955 141.617 52.8991L143.031 51.4849C142.639 51.0931 142.139 50.904 141.604 50.904V52.904ZM141.673 52.9513C141.68 52.9572 141.655 52.9372 141.635 52.8874C141.615 52.8369 141.618 52.801 141.618 52.8016L143.606 53.0224C143.675 52.3985 143.444 51.8354 142.974 51.4327L141.673 52.9513ZM141.612 52.8941C141.582 54.5439 141.216 56.0022 140.529 57.2894L142.294 58.2306C143.144 56.6378 143.577 54.8641 143.612 52.9299L141.612 52.8941ZM140.525 57.2967C139.862 58.5667 138.921 59.6717 137.686 60.6126L138.898 62.2034C140.351 61.0963 141.49 59.7693 142.298 58.2233L140.525 57.2967ZM137.698 60.6034C136.456 61.5201 134.993 62.2403 133.297 62.7551L133.878 64.6689C135.766 64.0957 137.439 63.2799 138.886 62.2126L137.698 60.6034ZM133.313 62.7505C131.621 63.2338 129.763 63.48 127.732 63.48V65.48C129.924 65.48 131.97 65.2142 133.862 64.6735L133.313 62.7505ZM155.697 63.664L154.99 64.3711L155.014 64.3947L155.039 64.4166L155.697 63.664ZM155.361 52.48H156.361V52.2264L156.24 52.0035L155.361 52.48ZM144.225 31.936L143.277 32.2522L143.304 32.3354L143.346 32.4125L144.225 31.936ZM144.129 31.696L143.181 32.0122L143.203 32.0796L143.235 32.1432L144.129 31.696ZM144.369 30.736L145.076 31.4431L145.076 31.4431L144.369 30.736ZM152.241 30.784L151.534 31.4911L151.578 31.5351L151.627 31.5734L152.241 30.784ZM152.769 31.408L151.821 31.7242L151.85 31.8133L151.896 31.8954L152.769 31.408ZM159.681 43.792L158.808 44.2794L159.681 45.8438L160.555 44.2794L159.681 43.792ZM166.593 31.408L167.467 31.8954L167.478 31.8755L167.488 31.8552L166.593 31.408ZM167.121 30.784L167.78 31.5366L167.786 31.5314L167.121 30.784ZM174.993 30.736L174.234 31.3868L174.259 31.4159L174.286 31.4431L174.993 30.736ZM175.233 31.696L174.285 31.3798L174.233 31.5337V31.696H175.233ZM175.185 31.936L176.064 32.4141L176.106 32.3363L176.134 32.2522L175.185 31.936ZM164.001 52.48L163.123 52.0019L163.001 52.2254V52.48H164.001ZM163.665 63.664L164.372 64.3711L163.665 63.664ZM156.561 63C156.5 63 156.442 62.9868 156.356 62.9114L155.039 64.4166C155.465 64.7892 155.983 65 156.561 65V63ZM156.404 62.9569C156.39 62.9421 156.361 62.9191 156.361 62.8H154.361C154.361 63.3849 154.557 63.9379 154.99 64.3711L156.404 62.9569ZM156.361 62.8V52.48H154.361V62.8H156.361ZM156.24 52.0035L145.104 31.4595L143.346 32.4125L154.482 52.9565L156.24 52.0035ZM145.174 31.6198C145.133 31.4957 145.084 31.3684 145.024 31.2488L143.235 32.1432C143.239 32.1516 143.254 32.1843 143.277 32.2522L145.174 31.6198ZM145.078 31.3798C145.078 31.3794 145.079 31.3821 145.08 31.3876C145.081 31.3932 145.081 31.4002 145.081 31.408H143.081C143.081 31.6172 143.117 31.8198 143.181 32.0122L145.078 31.3798ZM145.081 31.408C145.081 31.4068 145.081 31.4107 145.08 31.4181C145.078 31.4257 145.076 31.434 145.072 31.4419C145.069 31.4497 145.066 31.4543 145.066 31.4552C145.065 31.456 145.068 31.4518 145.076 31.4431L143.662 30.0289C143.295 30.3958 143.081 30.8694 143.081 31.408H145.081ZM145.076 31.4431C145.095 31.425 145.108 31.4142 145.117 31.4082C145.125 31.4023 145.13 31.4004 145.13 31.4002C145.131 31.4 145.13 31.4003 145.129 31.4005C145.128 31.4006 145.131 31.4 145.137 31.4V29.4C144.556 29.4 144.053 29.6379 143.662 30.0289L145.076 31.4431ZM145.137 31.4H151.137V29.4H145.137V31.4ZM151.137 31.4C151.442 31.4 151.521 31.4776 151.534 31.4911L152.948 30.0769C152.45 29.5784 151.793 29.4 151.137 29.4V31.4ZM151.627 31.5734C151.734 31.6562 151.795 31.7171 151.826 31.7539C151.859 31.7924 151.84 31.7828 151.821 31.7242L153.718 31.0918C153.559 30.6146 153.191 30.2554 152.855 29.9946L151.627 31.5734ZM151.896 31.8954L158.808 44.2794L160.555 43.3046L153.643 30.9206L151.896 31.8954ZM160.555 44.2794L167.467 31.8954L165.72 30.9206L158.808 43.3046L160.555 44.2794ZM167.488 31.8552C167.502 31.8273 167.571 31.7193 167.78 31.5366L166.463 30.0314C166.16 30.2967 165.877 30.6047 165.699 30.9608L167.488 31.8552ZM167.786 31.5314C167.849 31.4754 167.976 31.4 168.273 31.4V29.4C167.611 29.4 166.97 29.5806 166.457 30.0366L167.786 31.5314ZM168.273 31.4H174.273V29.4H168.273V31.4ZM174.273 31.4C174.28 31.4 174.279 31.4006 174.273 31.3992C174.266 31.3978 174.257 31.3949 174.246 31.3902C174.236 31.3855 174.23 31.3808 174.226 31.3783C174.223 31.3761 174.226 31.3778 174.234 31.3868L175.753 30.0852C175.376 29.6458 174.861 29.4 174.273 29.4V31.4ZM174.286 31.4431C174.295 31.4518 174.298 31.456 174.297 31.4552C174.296 31.4543 174.294 31.4497 174.29 31.4419C174.287 31.434 174.284 31.4257 174.283 31.4181C174.281 31.4107 174.281 31.4068 174.281 31.408H176.281C176.281 30.8694 176.067 30.3958 175.7 30.0289L174.286 31.4431ZM174.281 31.408C174.281 31.4002 174.282 31.3932 174.283 31.3876C174.284 31.3821 174.285 31.3794 174.285 31.3798L176.182 32.0122C176.246 31.8198 176.281 31.6172 176.281 31.408H174.281ZM174.233 31.696C174.233 31.6471 174.239 31.6158 174.241 31.6079C174.243 31.5989 174.243 31.6022 174.237 31.6198L176.134 32.2522C176.183 32.1063 176.233 31.9112 176.233 31.696H174.233ZM174.307 31.4579L163.123 52.0019L164.88 52.9581L176.064 32.4141L174.307 31.4579ZM163.001 52.48V62.8H165.001V52.48H163.001ZM163.001 62.8C163.001 62.9191 162.973 62.9421 162.958 62.9569L164.372 64.3711C164.806 63.9379 165.001 63.3849 165.001 62.8H163.001ZM162.958 62.9569C162.943 62.9717 162.92 63 162.801 63V65C163.386 65 163.939 64.8043 164.372 64.3711L162.958 62.9569ZM162.801 63H156.561V65H162.801V63ZM179.729 63.664L179.022 64.3711L179.046 64.3947L179.071 64.4166L179.729 63.664ZM179.729 30.736L179.071 29.9834L179.046 30.0053L179.022 30.0289L179.729 30.736ZM186.929 30.832L186.182 31.4964L186.221 31.5403L186.265 31.5794L186.929 30.832ZM187.457 31.456L186.529 31.8274L186.552 31.8867L186.584 31.9426L187.457 31.456ZM195.905 46.624L195.032 47.1106L195.905 48.6792L196.779 47.1106L195.905 46.624ZM204.353 31.456L203.496 30.9415L203.487 30.9553L203.48 30.9694L204.353 31.456ZM204.833 30.832L204.086 30.1676L204.081 30.1735L204.833 30.832ZM212.033 30.736L211.326 31.4431L211.35 31.4666L211.375 31.4886L212.033 30.736ZM212.033 63.664L211.375 62.9114L211.35 62.9333L211.326 62.9569L212.033 63.664ZM204.545 63.664L203.838 64.3711L203.862 64.3947L203.887 64.4166L204.545 63.664ZM204.209 44.8H205.209L203.33 44.3244L204.209 44.8ZM198.785 54.832L197.906 54.3564L197.887 54.3905L197.871 54.4259L198.785 54.832ZM198.209 55.6L197.551 54.8474L197.551 54.8474L198.209 55.6ZM193.601 55.6L194.26 54.8474L194.26 54.8474L193.601 55.6ZM192.977 54.832L192.097 55.3076L192.103 55.3176L192.977 54.832ZM187.553 44.8L188.433 44.3244L186.553 44.8H187.553ZM187.217 63.664L187.924 64.3711L187.217 63.664ZM180.593 63C180.532 63 180.474 62.9868 180.388 62.9114L179.071 64.4166C179.497 64.7892 180.015 65 180.593 65V63ZM180.436 62.9569C180.422 62.9421 180.393 62.9191 180.393 62.8H178.393C178.393 63.3849 178.589 63.9379 179.022 64.3711L180.436 62.9569ZM180.393 62.8V31.6H178.393V62.8H180.393ZM180.393 31.6C180.393 31.4809 180.422 31.4579 180.436 31.4431L179.022 30.0289C178.589 30.4621 178.393 31.0151 178.393 31.6H180.393ZM180.388 31.4886C180.474 31.4132 180.532 31.4 180.593 31.4V29.4C180.015 29.4 179.496 29.6108 179.071 29.9834L180.388 31.4886ZM180.593 31.4H185.777V29.4H180.593V31.4ZM185.777 31.4C186.103 31.4 186.173 31.4861 186.182 31.4964L187.677 30.1676C187.174 29.6019 186.476 29.4 185.777 29.4V31.4ZM186.265 31.5794C186.387 31.6877 186.466 31.7694 186.514 31.8259C186.537 31.8535 186.548 31.8691 186.551 31.8733C186.554 31.8783 186.543 31.8625 186.529 31.8274L188.386 31.0846C188.227 30.688 187.888 30.3464 187.594 30.0846L186.265 31.5794ZM186.584 31.9426L195.032 47.1106L196.779 46.1374L188.331 30.9694L186.584 31.9426ZM196.779 47.1106L205.227 31.9426L203.48 30.9694L195.032 46.1374L196.779 47.1106ZM205.211 31.9705C205.261 31.8871 205.375 31.7318 205.586 31.4905L204.081 30.1735C203.844 30.4442 203.638 30.7049 203.496 30.9415L205.211 31.9705ZM205.581 31.4964C205.586 31.4898 205.605 31.4703 205.664 31.4489C205.73 31.4252 205.846 31.4 206.033 31.4V29.4C205.325 29.4 204.599 29.5898 204.086 30.1676L205.581 31.4964ZM206.033 31.4H211.169V29.4H206.033V31.4ZM211.169 31.4C211.288 31.4 211.311 31.4283 211.326 31.4431L212.74 30.0289C212.307 29.5957 211.754 29.4 211.169 29.4V31.4ZM211.375 31.4886C211.402 31.5127 211.407 31.5251 211.407 31.5261C211.408 31.5281 211.417 31.5475 211.417 31.6H213.417C213.417 30.9711 213.173 30.4047 212.692 29.9834L211.375 31.4886ZM211.417 31.6V62.8H213.417V31.6H211.417ZM211.417 62.8C211.417 62.8525 211.408 62.8719 211.407 62.8739C211.407 62.8749 211.402 62.8873 211.375 62.9114L212.692 64.4166C213.173 63.9953 213.417 63.4289 213.417 62.8H211.417ZM211.326 62.9569C211.311 62.9717 211.288 63 211.169 63V65C211.754 65 212.307 64.8043 212.74 64.3711L211.326 62.9569ZM211.169 63H205.457V65H211.169V63ZM205.457 63C205.338 63 205.271 62.9699 205.204 62.9114L203.887 64.4166C204.332 64.8061 204.872 65 205.457 65V63ZM205.252 62.9569C205.238 62.9421 205.209 62.9191 205.209 62.8H203.209C203.209 63.3849 203.405 63.9379 203.838 64.3711L205.252 62.9569ZM205.209 62.8V44.8H203.209V62.8H205.209ZM203.33 44.3244L197.906 54.3564L199.665 55.3076L205.089 45.2756L203.33 44.3244ZM197.871 54.4259C197.807 54.5709 197.706 54.7113 197.551 54.8474L198.868 56.3526C199.224 56.0407 199.507 55.6691 199.699 55.2381L197.871 54.4259ZM197.551 54.8474C197.528 54.8671 197.437 54.936 197.153 54.936V56.936C197.765 56.936 198.378 56.7809 198.868 56.3526L197.551 54.8474ZM197.153 54.936H194.657V56.936H197.153V54.936ZM194.657 54.936C194.373 54.936 194.282 54.8671 194.26 54.8474L192.943 56.3526C193.432 56.7809 194.045 56.936 194.657 56.936V54.936ZM194.26 54.8474C194.088 54.6968 193.954 54.5303 193.851 54.3464L192.103 55.3176C192.321 55.7096 192.603 56.0552 192.943 56.3526L194.26 54.8474ZM193.857 54.3564L188.433 44.3244L186.674 45.2756L192.098 55.3076L193.857 54.3564ZM186.553 44.8V62.8H188.553V44.8H186.553ZM186.553 62.8C186.553 62.9191 186.525 62.9421 186.51 62.9569L187.924 64.3711C188.358 63.9379 188.553 63.3849 188.553 62.8H186.553ZM186.51 62.9569C186.495 62.9717 186.472 63 186.353 63V65C186.938 65 187.491 64.8043 187.924 64.3711L186.51 62.9569ZM186.353 63H180.593V65H186.353V63ZM219.432 63.664L220.139 62.9569L220.139 62.9569L219.432 63.664ZM219.432 30.736L220.139 31.4431L220.139 31.4431L219.432 30.736ZM240.648 31.648L240.256 32.5679L240.265 32.5718L240.274 32.5754L240.648 31.648ZM245.256 35.296L244.424 35.8507L244.432 35.8618L245.256 35.296ZM245.256 47.584L244.437 47.0105L244.429 47.0217L245.256 47.584ZM240.648 51.136L240.287 50.2034L240.282 50.2054L240.648 51.136ZM228.024 52.288V51.288H227.024V52.288H228.024ZM227.64 63.664L226.982 62.9114L226.957 62.9333L226.933 62.9569L227.64 63.664ZM227.88 45.664H226.88V46.664H227.88V45.664ZM236.76 44.608L236.114 43.8446L236.107 43.8509L236.1 43.8573L236.76 44.608ZM236.952 38.32L237.716 37.6741L237.716 37.6741L236.952 38.32ZM227.88 37.072V36.072H226.88V37.072H227.88ZM220.296 63C220.177 63 220.154 62.9717 220.139 62.9569L218.725 64.3711C219.158 64.8043 219.711 65 220.296 65V63ZM220.139 62.9569C220.125 62.9421 220.096 62.9191 220.096 62.8H218.096C218.096 63.3849 218.292 63.9379 218.725 64.3711L220.139 62.9569ZM220.096 62.8V31.6H218.096V62.8H220.096ZM220.096 31.6C220.096 31.4809 220.125 31.4579 220.139 31.4431L218.725 30.0289C218.292 30.4621 218.096 31.0151 218.096 31.6H220.096ZM220.139 31.4431C220.154 31.4283 220.177 31.4 220.296 31.4V29.4C219.711 29.4 219.158 29.5957 218.725 30.0289L220.139 31.4431ZM220.296 31.4H233.736V29.4H220.296V31.4ZM233.736 31.4C236.29 31.4 238.455 31.8003 240.256 32.5679L241.04 30.7281C238.937 29.8317 236.494 29.4 233.736 29.4V31.4ZM240.274 32.5754C242.089 33.3073 243.458 34.4015 244.424 35.8507L246.088 34.7413C244.879 32.9265 243.175 31.5887 241.022 30.7206L240.274 32.5754ZM244.432 35.8618C245.411 37.2885 245.936 39.1412 245.936 41.488H247.936C247.936 38.8428 247.342 36.5675 246.081 34.7302L244.432 35.8618ZM245.936 41.488C245.936 43.8007 245.412 45.6179 244.437 47.0105L246.076 48.1575C247.341 46.3501 247.936 44.1033 247.936 41.488H245.936ZM244.429 47.0217C243.467 48.4372 242.102 49.5011 240.287 50.2034L241.009 52.0686C243.163 51.2349 244.87 49.9308 246.083 48.1463L244.429 47.0217ZM240.282 50.2054C238.473 50.9171 236.299 51.288 233.736 51.288V53.288C236.486 53.288 238.919 52.8909 241.014 52.0666L240.282 50.2054ZM233.736 51.288H228.024V53.288H233.736V51.288ZM227.024 52.288V62.8H229.024V52.288H227.024ZM227.024 62.8C227.024 62.8525 227.015 62.8719 227.015 62.8739C227.014 62.8749 227.009 62.8873 226.982 62.9114L228.299 64.4166C228.78 63.9953 229.024 63.4289 229.024 62.8H227.024ZM226.933 62.9569C226.918 62.9717 226.895 63 226.776 63V65C227.361 65 227.914 64.8043 228.347 64.3711L226.933 62.9569ZM226.776 63H220.296V65H226.776V63ZM227.88 46.664H233.496V44.664H227.88V46.664ZM233.496 46.664C235.043 46.664 236.39 46.2656 237.421 45.3587L236.1 43.8573C235.53 44.3584 234.702 44.664 233.496 44.664V46.664ZM237.406 45.3714C238.53 44.4208 239.008 43.0255 239.008 41.392H237.008C237.008 42.6385 236.655 43.3872 236.114 43.8446L237.406 45.3714ZM239.008 41.392C239.008 39.9687 238.59 38.7077 237.716 37.6741L236.189 38.9659C236.722 39.5963 237.008 40.3833 237.008 41.392H239.008ZM237.716 37.6741C236.746 36.5285 235.25 36.072 233.496 36.072V38.072C234.943 38.072 235.75 38.4475 236.189 38.9659L237.716 37.6741ZM233.496 36.072H227.88V38.072H233.496V36.072ZM226.88 37.072V45.664H228.88V37.072H226.88ZM251.87 63.664L252.577 62.9569L252.577 62.9569L251.87 63.664ZM251.87 30.736L252.577 31.4431L252.577 31.4431L251.87 30.736ZM259.886 30.736L259.179 31.4431L259.202 31.4666L259.227 31.4886L259.886 30.736ZM260.27 56.752H259.27V57.752H260.27V56.752ZM275.63 57.136L274.877 57.7945L274.921 57.8447L274.971 57.8886L275.63 57.136ZM275.63 63.664L274.971 62.9114L274.946 62.9333L274.923 62.9569L275.63 63.664ZM252.734 63C252.615 63 252.592 62.9717 252.577 62.9569L251.163 64.3711C251.596 64.8043 252.149 65 252.734 65V63ZM252.577 62.9569C252.562 62.9421 252.534 62.9191 252.534 62.8H250.534C250.534 63.3849 250.73 63.9379 251.163 64.3711L252.577 62.9569ZM252.534 62.8V31.6H250.534V62.8H252.534ZM252.534 31.6C252.534 31.4809 252.562 31.4579 252.577 31.4431L251.163 30.0289C250.73 30.4621 250.534 31.0151 250.534 31.6H252.534ZM252.577 31.4431C252.592 31.4283 252.615 31.4 252.734 31.4V29.4C252.149 29.4 251.596 29.5957 251.163 30.0289L252.577 31.4431ZM252.734 31.4H259.07V29.4H252.734V31.4ZM259.07 31.4C259.111 31.4 259.128 31.4066 259.133 31.4087C259.138 31.4106 259.153 31.4172 259.179 31.4431L260.593 30.0289C260.179 29.6152 259.652 29.4 259.07 29.4V31.4ZM259.227 31.4886C259.255 31.5127 259.26 31.5251 259.26 31.5261C259.261 31.5281 259.27 31.5475 259.27 31.6H261.27C261.27 30.9711 261.026 30.4047 260.544 29.9834L259.227 31.4886ZM259.27 31.6V56.752H261.27V31.6H259.27ZM260.27 57.752H274.766V55.752H260.27V57.752ZM274.766 57.752C274.818 57.752 274.838 57.7609 274.84 57.7618C274.841 57.7623 274.853 57.7669 274.877 57.7945L276.382 56.4775C275.961 55.996 275.395 55.752 274.766 55.752V57.752ZM274.971 57.8886C274.999 57.9127 275.004 57.9251 275.004 57.9261C275.005 57.9281 275.014 57.9475 275.014 58H277.014C277.014 57.3711 276.77 56.8047 276.288 56.3834L274.971 57.8886ZM275.014 58V62.8H277.014V58H275.014ZM275.014 62.8C275.014 62.8525 275.005 62.8719 275.004 62.8739C275.004 62.8749 274.999 62.8873 274.971 62.9114L276.288 64.4166C276.77 63.9953 277.014 63.4289 277.014 62.8H275.014ZM274.923 62.9569C274.908 62.9717 274.885 63 274.766 63V65C275.351 65 275.904 64.8043 276.337 64.3711L274.923 62.9569ZM274.766 63H252.734V65H274.766V63ZM280.51 63.664L281.218 62.9569L281.218 62.9569L280.51 63.664ZM280.51 30.736L281.218 31.4431L281.218 31.4431L280.51 30.736ZM304.654 36.976L305.362 37.6831L305.362 37.6831L304.654 36.976ZM288.478 37.312V36.312H287.478V37.312H288.478ZM288.478 43.792H287.478V44.792H288.478V43.792ZM303.598 44.176L302.846 44.8345L302.868 44.8596L302.891 44.8831L303.598 44.176ZM303.598 50.08L304.306 50.7871L304.329 50.7636L304.351 50.7385L303.598 50.08ZM288.478 50.416V49.416H287.478V50.416H288.478ZM288.478 57.088H287.478V58.088H288.478V57.088ZM305.038 57.424L304.331 58.1311L304.331 58.1311L305.038 57.424ZM305.038 63.664L304.331 62.9569L304.331 62.9569L305.038 63.664ZM281.374 63C281.255 63 281.232 62.9717 281.218 62.9569L279.803 64.3711C280.237 64.8043 280.79 65 281.374 65V63ZM281.218 62.9569C281.203 62.9421 281.174 62.9191 281.174 62.8H279.174C279.174 63.3849 279.37 63.9379 279.803 64.3711L281.218 62.9569ZM281.174 62.8V31.6H279.174V62.8H281.174ZM281.174 31.6C281.174 31.4809 281.203 31.4579 281.218 31.4431L279.803 30.0289C279.37 30.4621 279.174 31.0151 279.174 31.6H281.174ZM281.218 31.4431C281.232 31.4283 281.255 31.4 281.374 31.4V29.4C280.79 29.4 280.237 29.5957 279.803 30.0289L281.218 31.4431ZM281.374 31.4H303.79V29.4H281.374V31.4ZM303.79 31.4C303.91 31.4 303.933 31.4283 303.947 31.4431L305.362 30.0289C304.928 29.5957 304.375 29.4 303.79 29.4V31.4ZM303.947 31.4431C303.962 31.4579 303.99 31.4809 303.99 31.6H305.99C305.99 31.0151 305.795 30.4621 305.362 30.0289L303.947 31.4431ZM303.99 31.6V36.112H305.99V31.6H303.99ZM303.99 36.112C303.99 36.2311 303.962 36.2541 303.947 36.2689L305.362 37.6831C305.795 37.2499 305.99 36.6969 305.99 36.112H303.99ZM303.947 36.2689C303.933 36.2837 303.91 36.312 303.79 36.312V38.312C304.375 38.312 304.928 38.1163 305.362 37.6831L303.947 36.2689ZM303.79 36.312H288.478V38.312H303.79V36.312ZM287.478 37.312V43.792H289.478V37.312H287.478ZM288.478 44.792H302.734V42.792H288.478V44.792ZM302.734 44.792C302.787 44.792 302.806 44.8009 302.808 44.8018C302.809 44.8023 302.822 44.8069 302.846 44.8345L304.351 43.5175C303.93 43.036 303.363 42.792 302.734 42.792V44.792ZM302.891 44.8831C302.906 44.8979 302.934 44.9209 302.934 45.04H304.934C304.934 44.4551 304.739 43.9021 304.306 43.4689L302.891 44.8831ZM302.934 45.04V49.216H304.934V45.04H302.934ZM302.934 49.216C302.934 49.2777 302.921 49.3353 302.846 49.4215L304.351 50.7385C304.724 50.3127 304.934 49.7943 304.934 49.216H302.934ZM302.891 49.3729C302.877 49.3877 302.854 49.416 302.734 49.416V51.416C303.319 51.416 303.872 51.2203 304.306 50.7871L302.891 49.3729ZM302.734 49.416H288.478V51.416H302.734V49.416ZM287.478 50.416V57.088H289.478V50.416H287.478ZM288.478 58.088H304.174V56.088H288.478V58.088ZM304.174 58.088C304.294 58.088 304.317 58.1163 304.331 58.1311L305.746 56.7169C305.312 56.2837 304.759 56.088 304.174 56.088V58.088ZM304.331 58.1311C304.346 58.1459 304.374 58.1689 304.374 58.288H306.374C306.374 57.7031 306.179 57.1501 305.746 56.7169L304.331 58.1311ZM304.374 58.288V62.8H306.374V58.288H304.374ZM304.374 62.8C304.374 62.9191 304.346 62.9421 304.331 62.9569L305.746 64.3711C306.179 63.9379 306.374 63.3849 306.374 62.8H304.374ZM304.331 62.9569C304.317 62.9717 304.294 63 304.174 63V65C304.759 65 305.312 64.8043 305.746 64.3711L304.331 62.9569ZM304.174 63H281.374V65H304.174V63ZM331.604 63.664L332.311 62.9569L332.311 62.9569L331.604 63.664ZM331.604 30.736L332.311 31.4431L332.311 31.4431L331.604 30.736ZM353.876 31.552L354.276 30.6355L354.276 30.6355L353.876 31.552ZM357.764 34.864L356.898 35.3643L356.905 35.3757L356.912 35.387L357.764 34.864ZM358.388 42.976L357.494 42.5288L357.49 42.5355L357.487 42.5422L358.388 42.976ZM356.804 45.136L356.135 44.3927L356.126 44.4013L356.116 44.41L356.804 45.136ZM355.076 46.384L354.65 45.4792L352.734 46.381L354.648 47.2877L355.076 46.384ZM358.292 49.216L357.476 49.7935L357.48 49.8L357.485 49.8065L358.292 49.216ZM358.292 59.296L357.444 58.766L357.441 58.7709L358.292 59.296ZM354.164 62.8L354.572 63.7132L354.579 63.7098L354.164 62.8ZM339.86 57.76H338.86V58.76H339.86V57.76ZM349.7 56.56L350.451 57.2206L350.451 57.2206L349.7 56.56ZM349.652 50.992L348.915 51.6677L348.923 51.6759L348.93 51.6839L349.652 50.992ZM339.86 49.84V48.84H338.86V49.84H339.86ZM339.86 43.744H338.86V44.744H339.86V43.744ZM349.076 42.736L348.369 42.0289L348.36 42.0375L348.352 42.0463L349.076 42.736ZM349.076 37.648L348.352 38.3377L348.369 38.3553L348.387 38.3721L349.076 37.648ZM339.86 36.64V35.64H338.86V36.64H339.86ZM332.468 63C332.349 63 332.326 62.9717 332.311 62.9569L330.897 64.3711C331.33 64.8043 331.883 65 332.468 65V63ZM332.311 62.9569C332.297 62.9421 332.268 62.9191 332.268 62.8H330.268C330.268 63.3849 330.464 63.9379 330.897 64.3711L332.311 62.9569ZM332.268 62.8V31.6H330.268V62.8H332.268ZM332.268 31.6C332.268 31.4809 332.297 31.4579 332.311 31.4431L330.897 30.0289C330.464 30.4621 330.268 31.0151 330.268 31.6H332.268ZM332.311 31.4431C332.326 31.4283 332.349 31.4 332.468 31.4V29.4C331.883 29.4 331.33 29.5957 330.897 30.0289L332.311 31.4431ZM332.468 31.4H347.108V29.4H332.468V31.4ZM347.108 31.4C349.778 31.4 351.885 31.774 353.476 32.4685L354.276 30.6355C352.348 29.794 349.943 29.4 347.108 29.4V31.4ZM353.476 32.4685C355.072 33.1648 356.189 34.1369 356.898 35.3643L358.63 34.3637C357.675 32.7111 356.2 31.4752 354.276 30.6355L353.476 32.4685ZM356.912 35.387C357.663 36.6111 358.06 38.1027 358.06 39.904H360.06C360.06 37.8013 359.593 35.9329 358.617 34.341L356.912 35.387ZM358.06 39.904C358.06 40.9241 357.863 41.7911 357.494 42.5288L359.283 43.4232C359.81 42.3689 360.06 41.1879 360.06 39.904H358.06ZM357.487 42.5422C357.121 43.3022 356.668 43.9132 356.135 44.3927L357.473 45.8793C358.22 45.2068 358.823 44.3778 359.289 43.4098L357.487 42.5422ZM356.116 44.41C355.558 44.9394 355.069 45.2824 354.65 45.4792L355.502 47.2888C356.172 46.9736 356.835 46.4846 357.492 45.862L356.116 44.41ZM354.648 47.2877C355.681 47.7771 356.628 48.5945 357.476 49.7935L359.109 48.6385C358.101 47.2135 356.903 46.1429 355.504 45.4803L354.648 47.2877ZM357.485 49.8065C358.309 50.9328 358.732 52.2578 358.732 53.824H360.732C360.732 51.8702 360.195 50.1232 359.099 48.6255L357.485 49.8065ZM358.732 53.824C358.732 55.7802 358.289 57.4138 357.444 58.766L359.14 59.826C360.215 58.1062 360.732 56.0918 360.732 53.824H358.732ZM357.441 58.7709C356.631 60.0843 355.418 61.129 353.749 61.8902L354.579 63.7098C356.558 62.807 358.098 61.5157 359.143 59.8211L357.441 58.7709ZM353.757 61.8869C352.128 62.6138 350.069 63 347.54 63V65C350.26 65 352.616 64.5862 354.572 63.7131L353.757 61.8869ZM347.54 63H332.468V65H347.54V63ZM339.86 58.76H346.58V56.76H339.86V58.76ZM346.58 58.76C348.154 58.76 349.505 58.2954 350.451 57.2206L348.949 55.8994C348.487 56.4246 347.758 56.76 346.58 56.76V58.76ZM350.451 57.2206C351.308 56.2462 351.756 55.1018 351.756 53.824H349.756C349.756 54.5942 349.5 55.2738 348.949 55.8994L350.451 57.2206ZM351.756 53.824C351.756 52.4612 351.299 51.2649 350.374 50.3001L348.93 51.6839C349.478 52.2551 349.756 52.9468 349.756 53.824H351.756ZM350.389 50.3163C349.445 49.2857 348.118 48.84 346.58 48.84V50.84C347.73 50.84 348.452 51.1623 348.915 51.6677L350.389 50.3163ZM346.58 48.84H339.86V50.84H346.58V48.84ZM338.86 49.84V57.76H340.86V49.84H338.86ZM339.86 44.744H346.148V42.744H339.86V44.744ZM346.148 44.744C347.618 44.744 348.905 44.3662 349.8 43.4257L348.352 42.0463C347.968 42.4498 347.302 42.744 346.148 42.744V44.744ZM349.783 43.4431C350.665 42.5619 351.084 41.4329 351.084 40.144H349.084C349.084 40.9671 348.832 41.5661 348.369 42.0289L349.783 43.4431ZM351.084 40.144C351.084 38.8776 350.658 37.7732 349.766 36.9239L348.387 38.3721C348.839 38.8028 349.084 39.3624 349.084 40.144H351.084ZM349.8 36.9583C348.905 36.0178 347.618 35.64 346.148 35.64V37.64C347.302 37.64 347.968 37.9342 348.352 38.3377L349.8 36.9583ZM346.148 35.64H339.86V37.64H346.148V35.64ZM338.86 36.64V43.744H340.86V36.64H338.86ZM371.113 63.04L371.517 62.1251L371.517 62.1251L371.113 63.04ZM366.025 58.72L365.176 59.2488L365.18 59.2551L366.025 58.72ZM364.009 51.424L363.009 51.4472L363.01 51.4576L363.01 51.4679L364.009 51.424ZM364.009 43.12L363.01 43.0756L363.01 43.0864L363.009 43.0973L364.009 43.12ZM366.025 35.872L365.179 35.3395L365.176 35.3433L366.025 35.872ZM386.377 31.408L385.962 32.3179L385.967 32.3202L386.377 31.408ZM391.561 35.872L390.715 36.4045L390.719 36.4107L391.561 35.872ZM393.577 43.12L392.578 43.1533L392.578 43.1654L393.577 43.12ZM393.577 51.424L392.578 51.3775L392.578 51.3801L393.577 51.424ZM391.561 58.72L392.406 59.2551L392.41 59.2487L391.561 58.72ZM386.473 63.04L386.069 62.1251L386.069 62.1251L386.473 63.04ZM382.921 56.032L382.236 55.3038L382.23 55.3089L382.225 55.3141L382.921 56.032ZM384.649 51.136L383.65 51.0906L383.65 51.099L383.649 51.1074L384.649 51.136ZM384.649 43.264L383.65 43.3065L383.65 43.3116L384.649 43.264ZM383.785 39.616L382.891 40.0632L382.9 40.0813L382.91 40.0991L383.785 39.616ZM381.769 37.504L381.309 38.3918L381.309 38.3918L381.769 37.504ZM373.801 39.616L374.677 40.0991L374.68 40.0929L374.683 40.0866L373.801 39.616ZM372.937 43.264L371.938 43.2215L371.938 43.2308L371.937 43.2402L372.937 43.264ZM372.937 51.136L371.937 51.1587L371.938 51.1688L371.938 51.1788L372.937 51.136ZM378.793 63.48C375.956 63.48 373.539 63.0173 371.517 62.1251L370.709 63.9549C373.039 64.9827 375.742 65.48 378.793 65.48V63.48ZM371.517 62.1251C369.513 61.2412 367.975 59.9293 366.87 58.1849L365.18 59.2551C366.507 61.3507 368.361 62.9188 370.709 63.9549L371.517 62.1251ZM366.874 58.1913C365.77 56.4193 365.131 54.1654 365.008 51.3801L363.01 51.4679C363.144 54.5066 363.848 57.1167 365.176 59.2487L366.874 58.1913ZM365.009 51.4007C364.977 50.0325 364.961 48.6642 364.961 47.296H362.961C362.961 48.6798 362.977 50.0635 363.009 51.4472L365.009 51.4007ZM364.961 47.296C364.961 45.9277 364.977 44.5433 365.009 43.1427L363.009 43.0973C362.977 44.5127 362.961 45.9122 362.961 47.296H364.961ZM365.008 43.1644C365.13 40.4132 365.769 38.1743 366.874 36.4007L365.176 35.3433C363.849 37.4737 363.144 40.0668 363.01 43.0756L365.008 43.1644ZM366.872 36.4045C368.013 34.5892 369.574 33.2307 371.576 32.3179L370.746 30.4981C368.396 31.5693 366.533 33.1868 365.179 35.3395L366.872 36.4045ZM371.576 32.3179C373.596 31.3967 375.994 30.92 378.793 30.92V28.92C375.768 28.92 373.078 29.4353 370.746 30.4981L371.576 32.3179ZM378.793 30.92C381.559 30.92 383.94 31.3961 385.962 32.3179L386.792 30.4981C384.462 29.4359 381.787 28.92 378.793 28.92V30.92ZM385.967 32.3202C388.002 33.2342 389.575 34.593 390.715 36.4045L392.408 35.3395C391.051 33.183 389.168 31.5658 386.787 30.4958L385.967 32.3202ZM390.719 36.4107C391.849 38.1785 392.486 40.4094 392.578 43.1533L394.577 43.0867C394.476 40.0706 393.769 37.4695 392.404 35.3333L390.719 36.4107ZM392.578 43.1654C392.641 44.5586 392.673 45.9355 392.673 47.296H394.673C394.673 45.9045 394.641 44.4974 394.576 43.0746L392.578 43.1654ZM392.673 47.296C392.673 48.6565 392.641 50.017 392.578 51.3775L394.576 51.4705C394.641 50.079 394.673 48.6875 394.673 47.296H392.673ZM392.578 51.3801C392.456 54.1654 391.816 56.4193 390.712 58.1913L392.41 59.2487C393.738 57.1167 394.443 54.5066 394.576 51.4679L392.578 51.3801ZM390.716 58.1849C389.611 59.9293 388.073 61.2412 386.069 62.1251L386.877 63.9549C389.225 62.9188 391.079 61.3507 392.406 59.2551L390.716 58.1849ZM386.069 62.1251C384.047 63.0173 381.63 63.48 378.793 63.48V65.48C381.844 65.48 384.547 64.9827 386.877 63.9549L386.069 62.1251ZM378.793 58.568C380.706 58.568 382.346 57.9826 383.617 56.7499L382.225 55.3141C381.384 56.1294 380.272 56.568 378.793 56.568V58.568ZM383.606 56.7602C384.966 55.4803 385.581 53.5389 385.649 51.1646L383.649 51.1074C383.589 53.2131 383.052 54.5357 382.236 55.3038L383.606 56.7602ZM385.648 51.1814C385.713 49.7602 385.745 48.4169 385.745 47.152H383.745C383.745 48.3831 383.714 49.6958 383.65 51.0906L385.648 51.1814ZM385.745 47.152C385.745 45.887 385.713 44.5751 385.648 43.2164L383.65 43.3116C383.714 44.6409 383.745 45.921 383.745 47.152H385.745ZM385.648 43.2215C385.58 41.6237 385.272 40.2409 384.661 39.1329L382.91 40.0991C383.322 40.8471 383.59 41.8963 383.65 43.3065L385.648 43.2215ZM384.68 39.1688C384.115 38.0402 383.3 37.1715 382.229 36.6162L381.309 38.3918C381.966 38.7325 382.495 39.2718 382.891 40.0632L384.68 39.1688ZM382.229 36.6162C381.203 36.0841 380.049 35.832 378.793 35.832V37.832C379.777 37.832 380.607 38.0279 381.309 38.3918L382.229 36.6162ZM378.793 35.832C377.564 35.832 376.427 36.0862 375.405 36.6162L376.325 38.3918C377.031 38.0258 377.846 37.832 378.793 37.832V35.832ZM375.405 36.6162C374.34 37.1682 373.514 38.0288 372.919 39.1454L374.683 40.0866C375.112 39.2832 375.662 38.7358 376.325 38.3918L375.405 36.6162ZM372.926 39.1329C372.314 40.2409 372.006 41.6237 371.938 43.2215L373.936 43.3065C373.996 41.8963 374.264 40.8471 374.677 40.0991L372.926 39.1329ZM371.937 43.2402C371.905 44.5915 371.889 45.8955 371.889 47.152H373.889C373.889 45.9125 373.905 44.6245 373.937 43.2878L371.937 43.2402ZM371.889 47.152C371.889 48.4085 371.905 49.7441 371.937 51.1587L373.937 51.1133C373.905 49.7119 373.889 48.3915 373.889 47.152H371.889ZM371.938 51.1788C372.039 53.5439 372.653 55.4741 373.969 56.7499L375.361 55.3141C374.565 54.5419 374.027 53.2081 373.936 51.0932L371.938 51.1788ZM373.969 56.7499C375.24 57.9826 376.88 58.568 378.793 58.568V56.568C377.314 56.568 376.202 56.1294 375.361 55.3141L373.969 56.7499ZM406.449 63.664L407.156 62.9569L406.449 63.664ZM406.113 37.936H407.113V36.936H406.113V37.936ZM396.705 37.6L395.953 38.2585L395.975 38.2836L395.998 38.3071L396.705 37.6ZM396.705 30.736L397.412 31.4431L397.412 31.4431L396.705 30.736ZM424.257 37.6L424.964 38.3071L424.988 38.2836L425.01 38.2585L424.257 37.6ZM414.849 37.936V36.936H413.849V37.936H414.849ZM414.513 63.664L415.22 64.3711L414.513 63.664ZM407.313 63C407.194 63 407.171 62.9717 407.156 62.9569L405.742 64.3711C406.175 64.8043 406.728 65 407.313 65V63ZM407.156 62.9569C407.142 62.9421 407.113 62.9191 407.113 62.8H405.113C405.113 63.3849 405.309 63.9379 405.742 64.3711L407.156 62.9569ZM407.113 62.8V37.936H405.113V62.8H407.113ZM406.113 36.936H397.569V38.936H406.113V36.936ZM397.569 36.936C397.45 36.936 397.427 36.9077 397.412 36.8929L395.998 38.3071C396.431 38.7403 396.984 38.936 397.569 38.936V36.936ZM397.458 36.9415C397.382 36.8553 397.369 36.7977 397.369 36.736H395.369C395.369 37.3143 395.58 37.8327 395.953 38.2585L397.458 36.9415ZM397.369 36.736V31.6H395.369V36.736H397.369ZM397.369 31.6C397.369 31.4809 397.398 31.4579 397.412 31.4431L395.998 30.0289C395.565 30.4621 395.369 31.0151 395.369 31.6H397.369ZM397.412 31.4431C397.427 31.4283 397.45 31.4 397.569 31.4V29.4C396.984 29.4 396.431 29.5957 395.998 30.0289L397.412 31.4431ZM397.569 31.4H423.393V29.4H397.569V31.4ZM423.393 31.4C423.512 31.4 423.535 31.4283 423.55 31.4431L424.964 30.0289C424.531 29.5957 423.978 29.4 423.393 29.4V31.4ZM423.55 31.4431C423.565 31.4579 423.593 31.4809 423.593 31.6H425.593C425.593 31.0151 425.398 30.4621 424.964 30.0289L423.55 31.4431ZM423.593 31.6V36.736H425.593V31.6H423.593ZM423.593 36.736C423.593 36.7977 423.58 36.8553 423.505 36.9415L425.01 38.2585C425.382 37.8327 425.593 37.3143 425.593 36.736H423.593ZM423.55 36.8929C423.535 36.9077 423.512 36.936 423.393 36.936V38.936C423.978 38.936 424.531 38.7403 424.964 38.3071L423.55 36.8929ZM423.393 36.936H414.849V38.936H423.393V36.936ZM413.849 37.936V62.8H415.849V37.936H413.849ZM413.849 62.8C413.849 62.9191 413.821 62.9421 413.806 62.9569L415.22 64.3711C415.654 63.9379 415.849 63.3849 415.849 62.8H413.849ZM413.806 62.9569C413.791 62.9717 413.768 63 413.649 63V65C414.234 65 414.787 64.8043 415.22 64.3711L413.806 62.9569ZM413.649 63H407.313V65H413.649V63Z" fill="black"/>
<rect x="10.2775" y="31.4504" width="41.6799" height="41.6799" fill="#EB5757" stroke="black" stroke-width="3.36364"/>
<circle cx="47.7408" cy="33.5218" r="20.8399" fill="#2F80ED"/>
<circle cx="47.7408" cy="33.5218" r="20.8399" fill="#F2C94C"/>
<circle cx="47.7408" cy="33.5218" r="20.8399" stroke="black" stroke-width="3.36364"/>
<path d="M33.4941 79.0282L56.5883 39.03L79.6825 79.0282H33.4941Z" fill="#27AE60" stroke="black" stroke-width="3.36364"/>
<mask id="mask0_17_182" style="mask-type:alpha" maskUnits="userSpaceOnUse" x="0" y="0" width="95" height="95">
<circle cx="47.5" cy="47.5" r="47.5" fill="#D9D9D9"/>
</mask>
<g mask="url(#mask0_17_182)">
<path fill-rule="evenodd" clip-rule="evenodd" d="M47.7186 94.3571C73.7183 94.3571 94.7953 73.2801 94.7953 47.2803C94.7953 21.2806 73.7183 0.203613 47.7186 0.203613C21.7188 0.203613 0.641846 21.2806 0.641846 47.2803C0.641846 73.2801 21.7188 94.3571 47.7186 94.3571Z" fill="url(#paint1_linear_17_182)"/>
<g filter="url(#filter0_d_17_182)">
<path d="M55.1366 48.5159C59.2945 44.323 59.9787 35.6439 75.4102 37.5208C86.1908 38.8319 90.5498 34.0328 92.5892 27.775C84.9116 10.6935 67.7481 -1.20117 47.8065 -1.20117C20.704 -1.20117 -1.26685 20.7697 -1.26685 47.8722C-1.26685 53.1834 -0.423084 58.2975 1.1377 63.0879C8.30056 71.561 12.4963 67.1966 17.8552 61.6224C21.875 57.441 29.6135 57.4779 36.6856 56.8427C47.8761 55.8376 51.6503 52.0316 55.1366 48.5159Z" fill="url(#paint2_linear_17_182)"/>
</g>
<path d="M92.5897 27.7749C90.5503 34.0327 86.1913 38.8318 75.4107 37.5207C59.9792 35.6439 59.2949 44.3229 55.137 48.5159C51.6507 52.0316 47.8765 55.8376 36.686 56.8426C29.6139 57.4778 21.8755 57.4409 17.8556 61.6223C12.4968 67.1966 8.30105 71.5609 1.13818 63.0878" stroke="#FACAB9" stroke-width="1.26667"/>
<circle cx="47.5" cy="47.5" r="46.2333" stroke="black" stroke-width="2.53333"/>
</g>
<defs>
<filter id="filter0_d_17_182" x="-2.53351" y="-1.20117" width="96.3893" height="71.5729" filterUnits="userSpaceOnUse" color-interpolation-filters="sRGB">
<feFlood flood-opacity="0" result="BackgroundImageFix"/>
<feColorMatrix in="SourceAlpha" type="matrix" values="0 0 0 0 0 0 0 0 0 0 0 0 0 0 0 0 0 0 127 0" result="hardAlpha"/>
<feOffset dy="1.26667"/>
<feGaussianBlur stdDeviation="0.633333"/>
<feComposite in2="hardAlpha" operator="out"/>
<feColorMatrix type="matrix" values="0 0 0 0 0 0 0 0 0 0 0 0 0 0 0 0 0 0 1 0"/>
<feBlend mode="normal" in2="BackgroundImageFix" result="effect1_dropShadow_17_182"/>
<feBlend mode="normal" in="SourceGraphic" in2="effect1_dropShadow_17_182" result="shape"/>
</filter>
<linearGradient id="paint0_linear_17_182" x1="177.628" y1="9.50007" x2="627.393" y2="97.8265" gradientUnits="userSpaceOnUse">
<stop stop-color="#EB3800"/>
<stop offset="0.594347" stop-color="#FF621F" stop-opacity="0.26"/>
</linearGradient>
<linearGradient id="paint1_linear_17_182" x1="69.4185" y1="87.3684" x2="37.4211" y2="15.65" gradientUnits="userSpaceOnUse">
<stop stop-color="#0D0C0C"/>
<stop offset="1" stop-color="#363232"/>
</linearGradient>
<linearGradient id="paint2_linear_17_182" x1="-1.26685" y1="-1.20117" x2="52.3558" y2="131.452" gradientUnits="userSpaceOnUse">
<stop stop-color="#EB3800"/>
<stop offset="0.620518" stop-color="#FDC1A8"/>
</linearGradient>
</defs>
</svg>
