<svg width="439" height="78" viewBox="0 0 439 78" fill="none" xmlns="http://www.w3.org/2000/svg">
<path d="M141.961 46.1113C141.381 51.0742 139.544 54.9092 136.45 57.6162C133.378 60.3018 129.285 61.6445 124.172 61.6445C118.629 61.6445 114.182 59.6572 110.83 55.6826C107.5 51.708 105.835 46.3906 105.835 39.7305V35.2188C105.835 30.8574 106.608 27.0225 108.155 23.7139C109.724 20.4053 111.937 17.8701 114.794 16.1084C117.651 14.3252 120.96 13.4336 124.72 13.4336C129.704 13.4336 133.7 14.8301 136.708 17.623C139.716 20.3945 141.467 24.2402 141.961 29.1602H135.741C135.204 25.4219 134.033 22.7148 132.229 21.0391C130.445 19.3633 127.942 18.5254 124.72 18.5254C120.767 18.5254 117.662 19.9863 115.406 22.9082C113.172 25.8301 112.055 29.9873 112.055 35.3799V39.9238C112.055 45.0156 113.118 49.0654 115.245 52.0732C117.372 55.0811 120.348 56.585 124.172 56.585C127.609 56.585 130.241 55.8115 132.067 54.2646C133.915 52.6963 135.14 49.9785 135.741 46.1113H141.961ZM160.91 52.2666L169.031 26.1309H175.412L161.394 66.3818C159.224 72.1826 155.775 75.083 151.049 75.083L149.921 74.9863L147.697 74.5674V69.7334L149.309 69.8623C151.328 69.8623 152.896 69.4541 154.014 68.6377C155.152 67.8213 156.087 66.3281 156.817 64.1582L158.139 60.6133L145.699 26.1309H152.209L160.91 52.2666ZM186.369 26.1309L186.53 29.998C189.087 26.9902 192.535 25.4863 196.875 25.4863C201.752 25.4863 205.071 27.3555 206.833 31.0938C207.993 29.418 209.497 28.0645 211.345 27.0332C213.214 26.002 215.416 25.4863 217.951 25.4863C225.6 25.4863 229.488 29.5361 229.617 37.6357V61H223.655V37.9902C223.655 35.498 223.086 33.6396 221.947 32.415C220.809 31.1689 218.896 30.5459 216.211 30.5459C213.998 30.5459 212.161 31.2119 210.7 32.5439C209.239 33.8545 208.391 35.627 208.154 37.8613V61H202.16V38.1514C202.16 33.0811 199.679 30.5459 194.716 30.5459C190.806 30.5459 188.131 32.2109 186.691 35.541V61H180.729V26.1309H186.369ZM268.096 43.9521C268.096 49.2588 266.882 53.5342 264.454 56.7783C262.026 60.0225 258.739 61.6445 254.593 61.6445C250.36 61.6445 247.03 60.3018 244.603 57.6162V74.4062H238.641V26.1309H244.087L244.377 29.998C246.805 26.9902 250.178 25.4863 254.496 25.4863C258.686 25.4863 261.994 27.0654 264.422 30.2236C266.871 33.3818 268.096 37.7754 268.096 43.4043V43.9521ZM262.134 43.2754C262.134 39.3438 261.296 36.2393 259.62 33.9619C257.944 31.6846 255.646 30.5459 252.724 30.5459C249.114 30.5459 246.407 32.1465 244.603 35.3477V52.0088C246.386 55.1885 249.114 56.7783 252.788 56.7783C255.646 56.7783 257.912 55.6504 259.588 53.3945C261.285 51.1172 262.134 47.7441 262.134 43.2754ZM282.179 61H276.217V11.5H282.179V61ZM306.22 61.6445C301.493 61.6445 297.647 60.0977 294.683 57.0039C291.718 53.8887 290.235 49.7314 290.235 44.5322V43.4365C290.235 39.9775 290.891 36.8945 292.201 34.1875C293.533 31.459 295.381 29.332 297.744 27.8066C300.129 26.2598 302.707 25.4863 305.479 25.4863C310.012 25.4863 313.535 26.9795 316.049 29.9658C318.562 32.9521 319.819 37.2275 319.819 42.792V45.2734H296.197C296.283 48.7109 297.282 51.4932 299.194 53.6201C301.128 55.7256 303.577 56.7783 306.542 56.7783C308.647 56.7783 310.431 56.3486 311.892 55.4893C313.353 54.6299 314.631 53.4912 315.727 52.0732L319.368 54.9092C316.446 59.3994 312.063 61.6445 306.22 61.6445ZM305.479 30.3848C303.072 30.3848 301.053 31.2656 299.42 33.0273C297.787 34.7676 296.777 37.2168 296.391 40.375H313.857V39.9238C313.686 36.8945 312.869 34.5527 311.408 32.8984C309.947 31.2227 307.971 30.3848 305.479 30.3848ZM344.054 61V14.0781H359.394C364.485 14.0781 368.31 15.1309 370.866 17.2363C373.444 19.3418 374.733 22.457 374.733 26.582C374.733 28.7734 374.11 30.7178 372.864 32.415C371.618 34.0908 369.921 35.3906 367.772 36.3145C370.308 37.0234 372.306 38.377 373.767 40.375C375.249 42.3516 375.99 44.7148 375.99 47.4648C375.99 51.6758 374.626 54.9844 371.897 57.3906C369.169 59.7969 365.312 61 360.328 61H344.054ZM350.241 39.0537V55.9404H360.457C363.336 55.9404 365.603 55.1992 367.257 53.7168C368.933 52.2129 369.771 50.1504 369.771 47.5293C369.771 41.8789 366.698 39.0537 360.554 39.0537H350.241ZM350.241 34.0908H359.587C362.294 34.0908 364.453 33.4141 366.064 32.0605C367.697 30.707 368.514 28.8701 368.514 26.5498C368.514 23.9717 367.762 22.1025 366.258 20.9424C364.754 19.7607 362.466 19.1699 359.394 19.1699H350.241V34.0908ZM382.661 43.2432C382.661 39.8271 383.327 36.7549 384.659 34.0264C386.013 31.2979 387.882 29.1924 390.267 27.71C392.673 26.2275 395.412 25.4863 398.484 25.4863C403.232 25.4863 407.067 27.1299 409.989 30.417C412.933 33.7041 414.404 38.0762 414.404 43.5332V43.9521C414.404 47.3467 413.749 50.3975 412.438 53.1045C411.149 55.79 409.291 57.8848 406.863 59.3887C404.457 60.8926 401.686 61.6445 398.549 61.6445C393.822 61.6445 389.987 60.001 387.044 56.7139C384.122 53.4268 382.661 49.0762 382.661 43.6621V43.2432ZM388.655 43.9521C388.655 47.8193 389.547 50.9238 391.33 53.2656C393.135 55.6074 395.541 56.7783 398.549 56.7783C401.578 56.7783 403.984 55.5967 405.768 53.2334C407.551 50.8486 408.442 47.5186 408.442 43.2432C408.442 39.4189 407.529 36.3252 405.703 33.9619C403.898 31.5771 401.492 30.3848 398.484 30.3848C395.541 30.3848 393.167 31.5557 391.362 33.8975C389.558 36.2393 388.655 39.5908 388.655 43.9521ZM429.97 17.6875V26.1309H436.479V30.7393H429.97V52.3633C429.97 53.7598 430.26 54.8125 430.84 55.5215C431.42 56.209 432.408 56.5527 433.805 56.5527C434.492 56.5527 435.438 56.4238 436.641 56.166V61C435.072 61.4297 433.547 61.6445 432.064 61.6445C429.4 61.6445 427.392 60.8389 426.038 59.2275C424.685 57.6162 424.008 55.3281 424.008 52.3633V30.7393H417.659V26.1309H424.008V17.6875H429.97Z" fill="black"/>
<rect x="1.68182" y="23.4504" width="41.6799" height="41.6799" fill="#EB5757" stroke="black" stroke-width="3.36364"/>
<circle cx="39.1453" cy="25.5218" r="20.8399" fill="#2F80ED" stroke="black" stroke-width="3.36364"/>
<path d="M24.8984 71.0282L47.9926 31.03L71.0868 71.0282H24.8984Z" fill="#27AE60" stroke="black" stroke-width="3.36364"/>
</svg>
